<svg width="137" height="37" fill="none" xmlns="http://www.w3.org/2000/svg"><path d="M105.47 1.901l-2.265 6.39h-1.612L99.324 1.9h1.603l1.47 4.474 1.474-4.474h1.599zm8.918 4.136V3.235h-.937V1.901h.937V0h1.469v1.901h1.523v1.33h-1.523v2.582c0 .924.21 1.163 1.042 1.163.143 0 .481-.029.481-.029v1.33s-.286.023-.795.023c-1.665.005-2.197-.648-2.197-2.263zm7.082 2.397h-.599c-1.418 0-2.383-1.006-2.383-2.816V1.9h1.484v3.822c0 .833.428 1.381 1.198 1.381.766 0 1.199-.548 1.199-1.381V1.9h1.484v3.717c0 1.815-.965 2.816-2.383 2.816zm5.385-2.764c-1.199-.3-1.941-.915-1.941-2.02 0-1.187.989-1.906 2.331-1.906 1.065 0 1.798.457 2.383 1.067l-.923 1.015c-.286-.39-.78-.81-1.498-.81-.547 0-.871.272-.871.6 0 .315.276.52.623.6l1.004.234c1.094.262 1.902.872 1.902 1.997 0 1.11-.86 1.982-2.54 1.982-1.341 0-2.159-.615-2.654-1.239l.937-.967c.471.614 1.08.924 1.836.924.766 0 .99-.338.99-.653 0-.276-.171-.48-.728-.624l-.851-.2zm3.638.824c0-1.458 1.185-2.14 2.654-2.14.481 0 1.018.13 1.289.225V4.15c0-.653-.561-1.058-1.251-1.058-.494 0-1.108.196-1.507.925l-1.004-.94c.509-.9 1.551-1.328 2.526-1.328 1.588 0 2.72.781 2.72 2.41v4.136h-1.455V7.8c-.405.352-1.004.638-1.822.638-1.165-.004-2.15-.72-2.15-1.944zm2.445.639c.571 0 1.17-.234 1.498-.548v-.73a3.588 3.588 0 00-1.327-.261c-.675 0-1.132.276-1.132.795-.005.4.309.744.961.744zM111.62 1.896a2.287 2.287 0 00-2.283 2.292v4.103h1.455V4.374c0-.634.514-1.144 1.142-1.144h.537V1.896h-.851zM107.953 0h-1.456v1.753A2.274 2.274 0 00107.953 0zm-1.451 2.049V8.29h1.484V4.088a2.29 2.29 0 00-1.484-2.04zM.114 34.835l.942-.252c1.199-.329 1.341-.51 1.341-2.073V21.194c0-1.563-.18-1.673-1.198-2.363L0 18.03v-.729l7.948-.872.362.253a61.98 61.98 0 00-.148 4.183v11.64c0 1.64.148 1.782 1.346 2.073l.942.253v.981H.114v-.977zm1.817-23.17c0-1.783 1.418-3.022 3.196-3.022 1.78 0 3.197 1.234 3.197 3.021 0 1.744-1.418 2.983-3.197 2.983-1.778 0-3.196-1.234-3.196-2.983zm9.842 11.749c0-9.382 6.207-13.237 13.213-13.237 2.797 0 5.337.4 6.897.834l.4 7.529h-1.128c-1.051-2.254-2.07-3.926-2.906-5.127-.947-1.234-1.889-1.71-3.667-1.71-4.248 0-5.846 3.092-5.846 10.982 0 9.458 1.85 12.036 5.846 12.036 2.107 0 3.087-.581 4.138-2.035.98-1.381 1.817-2.944 2.758-5.203h1.052l-.39 7.276c-1.708.73-4.429 1.492-7.953 1.492-7.187 0-12.415-4.217-12.415-12.837zm22.725 2.983c0-6.985 4.938-9.968 9.842-9.968 5.265 0 9.874 3.164 9.874 9.782 0 6.985-4.866 10.04-9.874 10.04-5.266 0-9.842-3.198-9.842-9.854zm13.614.181c0-7.347-1.418-8.73-3.887-8.73-2.287 0-3.629 1.673-3.629 7.93 0 7.456 1.199 9.057 3.848 9.057 2.179 0 3.667-1.272 3.667-8.257zm7.191 8.257l.942-.252c1.199-.329 1.341-.51 1.341-2.073V21.194c0-1.563-.18-1.673-1.198-2.364l-1.199-.8v-.73l7.663-.871.4.29-.072 2.293h.142c1.927-1.382 4.139-2.583 6.683-2.583 2.25 0 3.596.91 4.286 2.62h.18c1.96-1.381 4.139-2.62 6.864-2.62 2.83 0 4.505 1.639 4.505 4.874v11.202c0 1.601.142 1.782 1.308 2.073l.946.253v.981H78.072v-.981l.837-.22c1.018-.29 1.128-.4 1.128-2.11v-9.778c0-2.144-.58-2.911-2.25-2.911-1.232 0-2.43.29-3.23.51.038.29.072.729.072 1.234v10.95c0 1.71.142 1.82 1.089 2.11l.837.22v.981H66.86v-.982l.833-.219c.98-.29 1.127-.4 1.127-2.11v-9.783c0-2.144-.58-2.911-2.25-2.911-1.232 0-2.397.29-3.196.472v12.221c0 1.744.147 1.82 1.127 2.111l.833.22v.981H55.313v-.982h-.01zm33.547 0l.942-.252c1.199-.329 1.342-.51 1.342-2.073V21.194c0-1.563-.181-1.673-1.2-2.364l-1.198-.8v-.73l7.663-.871.4.29-.072 2.293h.143c1.926-1.382 4.138-2.583 6.678-2.583 2.25 0 3.596.91 4.285 2.62h.181c1.96-1.381 4.138-2.62 6.864-2.62 2.83 0 4.504 1.639 4.504 4.874v11.202c0 1.601.143 1.782 1.308 2.073l.947.253v.981h-10.022v-.981l.837-.22c1.018-.29 1.127-.4 1.127-2.11v-9.778c0-2.144-.58-2.911-2.25-2.911-1.231 0-2.43.29-3.229.51.038.29.071.729.071 1.234v10.95c0 1.71.143 1.82 1.089 2.11l.838.22v.981h-9.694v-.982l.837-.219c.98-.29 1.127-.4 1.127-2.11v-9.783c0-2.144-.58-2.911-2.249-2.911-1.232 0-2.398.29-3.197.472v12.221c0 1.744.148 1.82 1.127 2.111l.833.22v.981H88.86v-.982h-.01zm34.276.653l-.252-5.675h1.013a21.302 21.302 0 002.359 3.602c.728.91 1.598 1.382 3.158 1.382 1.741 0 3.016-.91 3.016-2.582 0-1.673-1.09-2.435-4.319-3.674-3.268-1.234-5.227-2.835-5.227-5.999 0-3.454 2.758-6.108 7.734-6.108 2.069 0 3.919.29 4.975.69l.219 4.946h-.98c-.728-1.31-1.342-2.22-2.069-3.054-.833-.91-1.489-1.162-2.797-1.162-1.527 0-2.578.872-2.578 2.363 0 1.382.69 2.254 3.596 3.345 4.357 1.6 6.026 3.345 6.026 6.184 0 3.822-2.868 6.51-8.167 6.51-2.116-.006-4.257-.33-5.707-.768z" fill="#7B7876"/></svg>