<svg width="172" height="61" fill="none" xmlns="http://www.w3.org/2000/svg"><path d="M132.028 2.38l-2.834 7.998h-2.019l-2.84-7.998h2.007l1.839 5.6 1.846-5.6h2.001zm11.164 5.177V4.05h-1.173V2.38h1.173V0h1.84v2.38h1.905v1.664h-1.905v3.233c0 1.157.262 1.455 1.304 1.455.178 0 .601-.036.601-.036v1.665s-.357.03-.994.03c-2.084.005-2.751-.812-2.751-2.834zm8.865 3h-.75c-1.774 0-2.983-1.258-2.983-3.525V2.38h1.858v4.784c0 1.043.536 1.73 1.5 1.73.959 0 1.501-.687 1.501-1.73V2.38h1.858v4.652c0 2.273-1.209 3.525-2.984 3.525zm6.74-3.459c-1.5-.376-2.429-1.145-2.429-2.529 0-1.485 1.239-2.386 2.918-2.386 1.333 0 2.25.573 2.983 1.336l-1.155 1.27c-.358-.488-.977-1.013-1.876-1.013-.685 0-1.09.34-1.09.751 0 .394.346.65.78.752l1.257.292c1.369.328 2.381 1.092 2.381 2.5 0 1.389-1.077 2.48-3.179 2.48-1.679 0-2.703-.769-3.323-1.55l1.173-1.211c.59.77 1.352 1.157 2.299 1.157.958 0 1.238-.424 1.238-.817 0-.346-.214-.603-.911-.782l-1.066-.25zm4.556 1.032c0-1.826 1.482-2.679 3.322-2.679.601 0 1.274.162 1.614.28v-.536c0-.817-.703-1.324-1.566-1.324-.62 0-1.388.244-1.888 1.157l-1.256-1.175c.637-1.127 1.941-1.664 3.161-1.664 1.989 0 3.406.978 3.406 3.018v5.177h-1.822v-.62c-.506.441-1.256.8-2.28.8-1.459-.007-2.691-.901-2.691-2.434zm3.06.799c.714 0 1.465-.292 1.876-.686V7.33c-.471-.179-.995-.328-1.662-.328-.845 0-1.417.346-1.417.996-.006.501.387.93 1.203.93zm-26.686-6.555a2.862 2.862 0 00-2.858 2.869v5.135h1.822V5.476a1.43 1.43 0 011.429-1.432h.672v-1.67h-1.065zM135.136 0h-1.822v2.195A2.845 2.845 0 00135.136 0zm-1.816 2.565v7.813h1.858v-5.26a2.867 2.867 0 00-1.858-2.553z" fill="#fff" fill-opacity=".5"/><path d="M.143 43.607l1.179-.316C2.822 42.88 3 42.653 3 40.697V26.53c0-1.956-.226-2.093-1.5-2.958L0 22.57v-.913l9.95-1.091.452.316a77.59 77.59 0 00-.185 5.237V40.69c0 2.051.185 2.23 1.685 2.594l1.18.316v1.229H.141v-1.223zm2.274-29.006c0-2.23 1.775-3.781 4.002-3.781 2.226 0 4 1.544 4 3.781 0 2.183-1.774 3.734-4 3.734-2.227 0-4.002-1.545-4.002-3.734zm12.32 14.709c0-11.744 7.77-16.57 16.54-16.57 3.502 0 6.681.501 8.634 1.044l.5 9.424H39c-1.316-2.821-2.59-4.915-3.638-6.418-1.185-1.545-2.364-2.141-4.59-2.141-5.318 0-7.318 3.87-7.318 13.748 0 11.84 2.316 15.067 7.317 15.067 2.638 0 3.865-.728 5.18-2.547 1.227-1.73 2.275-3.686 3.454-6.513h1.316l-.488 9.108c-2.138.912-5.544 1.867-9.956 1.867-8.997 0-15.54-5.28-15.54-16.07zm28.448 3.734c0-8.744 6.181-12.478 12.32-12.478 6.591 0 12.36 3.96 12.36 12.245 0 8.744-6.09 12.568-12.36 12.568-6.592 0-12.32-4.002-12.32-12.335zm17.041.227c0-9.198-1.774-10.928-4.864-10.928-2.864 0-4.543 2.094-4.543 9.926 0 9.334 1.5 11.338 4.817 11.338 2.727 0 4.59-1.592 4.59-10.336zm9.003 10.336l1.179-.316c1.5-.411 1.679-.638 1.679-2.594V26.53c0-1.956-.226-2.093-1.5-2.958l-1.501-1.002v-.913l9.592-1.091.5.364-.09 2.869h.18c2.411-1.73 5.18-3.233 8.365-3.233 2.817 0 4.502 1.14 5.365 3.28h.226c2.453-1.73 5.18-3.28 8.592-3.28 3.543 0 5.639 2.052 5.639 6.102V40.69c0 2.004.178 2.23 1.637 2.594l1.185.316v1.229H97.731V43.6l1.048-.274c1.275-.364 1.411-.501 1.411-2.642v-12.24c0-2.684-.726-3.644-2.816-3.644-1.542 0-3.042.364-4.043.638.048.364.09.913.09 1.545V40.69c0 2.142.178 2.279 1.363 2.643l1.048.274v1.229H83.697v-1.229l1.042-.274c1.227-.364 1.412-.501 1.412-2.642V28.444c0-2.684-.727-3.644-2.817-3.644-1.542 0-3 .364-4.001.59v15.3c0 2.183.185 2.278 1.411 2.642l1.042.274v1.229H69.241v-1.229h-.012zm41.994 0l1.179-.316c1.501-.411 1.679-.638 1.679-2.594V26.53c0-1.956-.226-2.093-1.5-2.958l-1.5-1.002v-.913l9.592-1.091.5.364-.089 2.869h.178c2.412-1.73 5.18-3.233 8.36-3.233 2.816 0 4.501 1.14 5.365 3.28h.226c2.453-1.73 5.18-3.28 8.592-3.28 3.542 0 5.638 2.052 5.638 6.102V40.69c0 2.004.179 2.23 1.638 2.594l1.184.316v1.229H139.72V43.6l1.048-.274c1.274-.364 1.411-.501 1.411-2.642v-12.24c0-2.684-.726-3.644-2.816-3.644-1.542 0-3.043.364-4.043.638.048.364.089.913.089 1.545V40.69c0 2.142.179 2.279 1.364 2.643l1.048.274v1.229h-12.135v-1.229l1.048-.274c1.227-.364 1.411-.501 1.411-2.642V28.444c0-2.684-.726-3.644-2.816-3.644-1.542 0-3.001.364-4.001.59v15.3c0 2.183.184 2.278 1.411 2.642l1.042.274v1.229h-12.546v-1.229h-.012zm42.906.817l-.316-7.104h1.269a26.643 26.643 0 002.953 4.51c.911 1.139 2.001 1.73 3.954 1.73 2.179 0 3.774-1.14 3.774-3.233 0-2.094-1.363-3.048-5.406-4.6-4.09-1.544-6.544-3.548-6.544-7.509 0-4.324 3.454-7.646 9.682-7.646 2.59 0 4.906.364 6.228.865l.274 6.19h-1.227c-.911-1.64-1.679-2.779-2.59-3.822-1.042-1.14-1.863-1.456-3.501-1.456-1.911 0-3.227 1.092-3.227 2.959 0 1.73.863 2.82 4.501 4.187 5.454 2.004 7.544 4.187 7.544 7.742 0 4.783-3.59 8.148-10.223 8.148-2.65-.006-5.329-.412-7.145-.96zM2.525 54.087H.584v-.614h4.59v.614h-1.94v5.279h-.709v-5.279zm3.358-.614h.637v2.284h.018c.286-.447.69-.733 1.394-.733 1.018 0 1.393.566 1.393 1.556v2.786h-.637v-2.613c0-.775-.244-1.163-.917-1.163-.762 0-1.25.501-1.25 1.3v2.476h-.638v-5.893zm8.407 4.503c-.077.895-.761 1.491-1.797 1.491-1.352 0-1.96-.889-1.96-2.213 0-1.3.644-2.207 1.936-2.207 1.292 0 1.834.847 1.834 2.058v.22h-3.114c.018 1.069.506 1.593 1.256 1.593.637 0 1.113-.292 1.203-.942h.643zm-.63-1.14c-.024-.757-.447-1.258-1.167-1.258-.715 0-1.18.406-1.28 1.259h2.447zm4.227-3.047a.448.448 0 11.893 0 .444.444 0 01-.447.453.44.44 0 01-.446-.453zm.13 1.318h.638v4.259h-.637v-4.259zm2.127 0h.637v.65h.018c.285-.447.69-.733 1.393-.733 1.018 0 1.393.566 1.393 1.556v2.786h-.637v-2.613c0-.775-.25-1.163-.917-1.163-.762 0-1.25.501-1.25 1.3v2.476h-.637v-4.259zm4.906.549h-.614v-.549h.613V54.01h.637v1.097h.995v.549h-.995v2.559c0 .453.22.644.596.644.125 0 .256-.018.41-.042v.567a2.1 2.1 0 01-.523.065c-.661 0-1.12-.352-1.12-1.18v-2.613zm6.097 2.32c-.078.895-.762 1.491-1.798 1.491-1.352 0-1.96-.889-1.96-2.213 0-1.3.644-2.207 1.936-2.207 1.292 0 1.84.847 1.84 2.058v.22h-3.12c.017 1.069.506 1.593 1.256 1.593.637 0 1.113-.292 1.203-.942h.643zm-.637-1.14c-.024-.757-.447-1.258-1.167-1.258-.715 0-1.18.406-1.28 1.259h2.447zm1.66-3.363h.638v5.893h-.637v-5.893zm2.132 0h.637v5.893h-.637v-5.893zm2.001.316a.44.44 0 01.447-.453c.25 0 .446.196.446.453a.444.444 0 01-.446.453.44.44 0 01-.447-.453zm.131 1.318h.637v4.259h-.637v-4.259zm5.788 0v.543h-.804c.208.238.34.519.34.93 0 .925-.638 1.545-1.614 1.545-.328 0-.614-.072-.852-.197-.184.137-.315.269-.315.412 0 .823 3.322-.126 3.322 1.479 0 .614-.464 1.181-2.108 1.181-1.476 0-1.959-.447-1.959-.972 0-.406.191-.692.608-.925-.286-.113-.477-.286-.477-.596 0-.34.268-.614.62-.8-.292-.274-.465-.656-.465-1.133 0-.924.643-1.556 1.614-1.556.196 0 .38.035.565.077h1.525v.012zm-2.965 4.11c-.376.286-.435.483-.435.662 0 .405.417.656 1.47.656.953 0 1.376-.209 1.376-.638-.006-.692-1.453-.513-2.411-.68zm1.899-2.637c0-.692-.423-1.067-1.018-1.067-.59 0-1.012.375-1.012 1.067s.422 1.062 1.012 1.062c.595-.006 1.018-.37 1.018-1.062zm5.442 1.396c-.078.895-.762 1.491-1.798 1.491-1.352 0-1.96-.889-1.96-2.213 0-1.3.644-2.207 1.936-2.207 1.286 0 1.84.847 1.84 2.058v.22h-3.12c.018 1.069.506 1.593 1.256 1.593.637 0 1.113-.292 1.203-.942h.643zm-.637-1.14c-.024-.757-.447-1.258-1.167-1.258-.715 0-1.18.406-1.28 1.259h2.447zm1.977-1.729h.637v.65h.017c.286-.447.691-.733 1.394-.733 1.018 0 1.393.566 1.393 1.556v2.786h-.637v-2.613c0-.775-.25-1.163-.917-1.163-.762 0-1.25.501-1.25 1.3v2.476h-.638v-4.259zm4.906.549h-.614v-.549h.614V54.01h.637v1.097h.994v.549h-.994v2.559c0 .453.22.644.595.644.125 0 .256-.018.411-.042v.567a2.098 2.098 0 01-.524.065c-.66 0-1.12-.352-1.12-1.18v-2.613zm8.484 2.213c-.065.996-.726 1.574-1.792 1.574-1.322 0-1.977-.9-1.977-2.207 0-1.312.673-2.212 1.977-2.212 1.066 0 1.727.584 1.792 1.586h-.655c-.065-.692-.5-1.038-1.155-1.038-.804 0-1.31.543-1.31 1.658 0 1.116.506 1.665 1.31 1.665.66 0 1.09-.329 1.155-1.026h.655zm.977-.627c0-1.324.833-2.212 2.09-2.212 1.256 0 2.09.894 2.09 2.212 0 1.319-.834 2.207-2.09 2.207-1.25 0-2.09-.888-2.09-2.206zm3.53 0c0-1.014-.583-1.681-1.44-1.681-.858 0-1.441.667-1.441 1.681 0 1.003.583 1.677 1.44 1.677.864-.006 1.441-.674 1.441-1.676zm1.882-2.135h.638v.662h.017c.268-.453.626-.74 1.263-.74.666 0 1.048.28 1.214.776h.018c.286-.495.715-.775 1.352-.775.934 0 1.328.56 1.328 1.556v2.786h-.638v-2.619c0-.787-.25-1.163-.845-1.163-.643 0-1.113.4-1.113 1.205v2.57h-.644v-2.612c0-.775-.214-1.163-.827-1.163-.703 0-1.132.501-1.132 1.3v2.476h-.637v-4.259h.006zm7.323 0h.638v.662h.018c.273-.453.63-.74 1.262-.74.667 0 1.048.28 1.215.776h.017c.286-.495.715-.775 1.352-.775.935 0 1.328.56 1.328 1.556v2.786h-.637v-2.619c0-.787-.25-1.163-.846-1.163-.643 0-1.113.4-1.113 1.205v2.57h-.643v-2.612c0-.775-.215-1.163-.828-1.163-.703 0-1.131.501-1.131 1.3v2.476h-.637v-4.259h.006zm7.045 0h.637v2.613c0 .775.238 1.163.875 1.163.732 0 1.209-.501 1.209-1.3v-2.476h.637v4.259h-.638v-.686h-.017c-.286.465-.685.764-1.352.764-.976 0-1.352-.567-1.352-1.551v-2.786zm4.846 0h.637v.65h.018c.286-.447.69-.733 1.393-.733 1.019 0 1.394.566 1.394 1.556v2.786h-.637v-2.613c0-.775-.25-1.163-.917-1.163-.763 0-1.25.501-1.25 1.3v2.476h-.638v-4.259zm4.805-1.318a.44.44 0 01.447-.453c.25 0 .446.196.446.453a.444.444 0 01-.446.453.44.44 0 01-.447-.453zm.125 1.318h.638v4.259h-.638v-4.259zm5.633 2.762c-.065.996-.726 1.574-1.792 1.574-1.322 0-1.977-.9-1.977-2.207 0-1.312.673-2.212 1.977-2.212 1.066 0 1.727.584 1.792 1.586h-.655c-.065-.692-.5-1.038-1.155-1.038-.804 0-1.31.543-1.31 1.658 0 1.116.506 1.665 1.31 1.665.66 0 1.09-.329 1.155-1.026h.655zm3.793.853h-.018c-.304.447-.804.721-1.536.721-.905 0-1.346-.507-1.346-1.133 0-1.235 1.274-1.253 2.156-1.402.643-.101.738-.143.738-.453 0-.519-.328-.889-1-.889-.632 0-.965.257-1.048.919h-.637c.095-.93.613-1.461 1.703-1.461 1.047 0 1.619.507 1.619 1.616v2.726h-.637v-.644h.006zm0-1.498c-.989.263-2.257.144-2.257.997 0 .423.358.692.858.692.821 0 1.399-.496 1.399-1.277v-.412zm2.012-1.568h-.613v-.549h.613V54.01h.637v1.097h.995v.549h-.995v2.559c0 .453.221.644.596.644.125 0 .256-.018.411-.042v.567a2.104 2.104 0 01-.524.065c-.661 0-1.12-.352-1.12-1.18v-2.613zm2.477-1.867a.44.44 0 01.447-.453c.25 0 .446.196.446.453a.444.444 0 01-.446.453.444.444 0 01-.447-.453zm.131 1.318h.637v4.259h-.637v-4.259zm1.858 2.135c0-1.324.833-2.212 2.09-2.212 1.256 0 2.089.894 2.089 2.212 0 1.319-.833 2.207-2.089 2.207-1.251 0-2.09-.888-2.09-2.206zm3.53 0c0-1.014-.583-1.681-1.44-1.681-.858 0-1.441.667-1.441 1.681 0 1.003.583 1.677 1.441 1.677.863-.006 1.44-.674 1.44-1.676zm1.882-2.135h.637v.65h.018c.286-.447.691-.733 1.393-.733 1.019 0 1.394.566 1.394 1.556v2.786h-.637v-2.613c0-.775-.25-1.163-.917-1.163-.762 0-1.251.501-1.251 1.3v2.476h-.637v-4.259zm5.228 2.881c.065.704.5.93 1.143.93.548 0 .887-.208.887-.673 0-1.146-2.536-.287-2.536-1.975 0-.692.518-1.24 1.5-1.24.953 0 1.542.489 1.59 1.443h-.637c-.054-.638-.381-.907-.953-.907-.637 0-.857.334-.857.686 0 1.074 2.536.293 2.536 1.957 0 .763-.571 1.24-1.584 1.24-1.071 0-1.685-.483-1.738-1.455h.649v-.006zm6.228-2.881h.637v.662h.018c.274-.453.631-.74 1.262-.74.667 0 1.048.28 1.215.776h.018c.285-.495.714-.775 1.351-.775.935 0 1.328.56 1.328 1.556v2.786h-.637v-2.619c0-.787-.25-1.163-.846-1.163-.643 0-1.113.4-1.113 1.205v2.57h-.643v-2.612c0-.775-.214-1.163-.828-1.163-.702 0-1.131.501-1.131 1.3v2.476h-.637v-4.259h.006zm9.789 3.615h-.018c-.304.447-.804.721-1.536.721-.905 0-1.346-.507-1.346-1.133 0-1.235 1.274-1.253 2.155-1.402.643-.101.739-.143.739-.453 0-.519-.328-.889-1.001-.889-.631 0-.964.257-1.048.919h-.637c.096-.93.614-1.461 1.703-1.461 1.048 0 1.62.507 1.62 1.616v2.726h-.637v-.644h.006zm0-1.498c-.989.263-2.257.144-2.257.997 0 .423.357.692.857.692.822 0 1.4-.496 1.4-1.277v-.412zm2.036-2.117h.637v.65h.018c.268-.453.637-.733 1.239-.733.023 0 .166 0 .19.005v.669a1.088 1.088 0 00-.28-.03c-.708 0-1.173.459-1.173 1.264v2.428h-.637v-4.253h.006zm2.894-1.634h.637v3.56l1.941-1.926h.857l-1.995 1.939 2.204 2.326h-.858l-2.149-2.32v2.32h-.637v-5.9zm7.645 4.503c-.078.895-.762 1.491-1.798 1.491-1.352 0-1.959-.889-1.959-2.213 0-1.3.643-2.207 1.935-2.207 1.286 0 1.84.847 1.84 2.058v.22h-3.12c.018 1.069.506 1.593 1.256 1.593.637 0 1.113-.292 1.203-.942h.643zm-.637-1.14c-.024-.757-.447-1.258-1.167-1.258-.715 0-1.179.406-1.28 1.259h2.447zm1.952-1.18h-.613v-.549h.613V54.01h.638v1.097h.994v.549h-.994v2.559c0 .453.22.644.595.644.125 0 .256-.018.411-.042v.567a2.104 2.104 0 01-.524.065c-.661 0-1.12-.352-1.12-1.18v-2.613zm2.608-.549h.637v.65h.018c.28-.435.667-.733 1.394-.733 1.19 0 1.845.882 1.845 2.2 0 1.378-.714 2.225-1.851 2.225-.691 0-1.096-.304-1.382-.763h-.018v2.237h-.637v-5.816h-.006zm3.239 2.117c0-1.05-.5-1.664-1.333-1.664-.893 0-1.274.62-1.274 1.694 0 1.062.381 1.659 1.28 1.659.78 0 1.327-.58 1.327-1.688zm1.876-3.751h.637v5.893h-.637v-5.893zm4.597 5.249h-.018c-.303.447-.804.721-1.536.721-.905 0-1.346-.507-1.346-1.133 0-1.235 1.275-1.253 2.156-1.402.643-.101.738-.143.738-.453 0-.519-.327-.889-1-.889-.631 0-.965.257-1.048.919h-.637c.095-.93.613-1.461 1.703-1.461 1.048 0 1.619.507 1.619 1.616v2.726h-.637v-.644h.006zm0-1.498c-.988.263-2.257.144-2.257.997 0 .423.358.692.858.692.822 0 1.399-.496 1.399-1.277v-.412zm5.531.645c-.065.996-.726 1.574-1.792 1.574-1.322 0-1.977-.9-1.977-2.207 0-1.312.673-2.212 1.977-2.212 1.066 0 1.727.584 1.792 1.586h-.655c-.065-.692-.5-1.038-1.155-1.038-.804 0-1.31.543-1.31 1.658 0 1.116.506 1.665 1.31 1.665.661 0 1.09-.329 1.155-1.026h.655zm4.734.107c-.078.895-.762 1.491-1.798 1.491-1.352 0-1.959-.889-1.959-2.213 0-1.3.643-2.207 1.935-2.207s1.84.847 1.84 2.058v.22h-3.12c.017 1.069.506 1.593 1.256 1.593.637 0 1.113-.292 1.203-.942h.643zm-.637-1.14c-.024-.757-.447-1.258-1.167-1.258-.715 0-1.179.406-1.281 1.259h2.448z" fill="#fff"/></svg>