<svg width="22" height="22" fill="none" xmlns="http://www.w3.org/2000/svg"><path d="M18.741 18.749h-3.254v-5.106c0-1.218-.025-2.783-1.701-2.783-1.697 0-1.955 1.321-1.955 2.693v5.195H8.572V8.25h3.13v1.432h.042c.437-.827 1.5-1.696 3.087-1.696 3.301 0 3.914 2.173 3.914 4.998v5.765h-.004zM4.891 6.815a1.89 1.89 0 01-1.57-2.946 1.893 1.893 0 111.57 2.945zm1.633 11.934H3.259V8.25h3.265v10.499zM20.374 0H1.623C.727 0 0 .709 0 1.586v18.829C0 21.292.727 22 1.623 22H20.37c.895 0 1.629-.71 1.629-1.586V1.586C22 .71 21.266 0 20.371 0h.004z" fill="#9F9F9F"/></svg>