<svg width="322" height="186" fill="none" xmlns="http://www.w3.org/2000/svg"><g clip-path="url(#clip0)"><path d="M245.326 167.509c-22.374-.872-91.779-2.317-134.546 7.277-79.308 17.792-140.291-28.159-95.675-70.772C27.575 92.103-1.196 11.787 82.225 1.37c73.237-9.145 144.841 30.053 179.62 47.223 34.779 17.17 49.665 43.634 56.586 55.571 6.094 10.491 5.072 66.435-73.105 63.345z" fill="#1188E2" fill-opacity=".1"/><path d="M250.005 150.49c-22.351-.225-91.648-1.221-133.675-4.212-77.959-5.532-141.64 3.738-99.832 14.254 11.71 2.941-22.025 20.634 60.504 24.596 72.453 3.464 146.299-4.062 182.035-7.302 35.737-3.239 52.234-8.971 59.895-11.537 6.747-2.293 9.228-15.002-68.927-15.799z" fill="#E9F6FF"/><path d="M13.625 147.749h162.969l-9.358 10.516H1.11l12.515-10.516z" fill="#599DEF"/><path d="M53.126 119.29l2.068-.224 1.589.125s-.784.822-2.569.947c-.826.05-3.242.822-3.242.822l.108-1.42 2.046-.25z" fill="#FFC6AC"/><path d="M38.675 111.042l2.59 9.395 10.555-1.072-.827 2.293-10.904 3.364s-3.177-6.056-3.047-7.127c.087-1.072-.479-8.049 1.633-6.853z" fill="#FFA606"/><path d="M36.629 160.358l1.088 8.199 5.18.897 2.699-.15-6.138-2.616-1.24-6.48-1.59.15z" fill="#FFC6AC"/><path d="M37.739 169.827h1.066l.522-.747 4.179.797 3.482-.1s-.021-.249-.174-.373c-.544-.399-3.156-.947-3.156-.947s.153.747-.152.847c-.326.1-3.526-.573-4.288-.798-1.305-.373-1.632-.747-1.697-.672-.218.224.218 1.993.218 1.993z" fill="#0561FC"/><path d="M56.37 158.788l3.264 7.675 5.81 1.221 2.09-.473-6.377-2.766-2.981-5.732-1.807.075z" fill="#FFC6AC"/><path d="M59.503 167.684h1.066l.523-.747 4.309 1.245 3.33-.548s-.022-.249-.174-.374c-.544-.398-3.156-.946-3.156-.946s.392.971.044 1.021c-.327.05-3.722-.747-4.484-.972-1.306-.373-1.632-.747-1.697-.672-.196.199.239 1.993.239 1.993z" fill="#0561FC"/><path d="M36.085 109.622c.196 2.467-1.437 4.66-3.657 4.884-2.198.224-4.157-1.595-4.352-4.087-.196-2.467 1.436-4.66 3.656-4.884 2.22-.224 4.157 1.595 4.353 4.087z" fill="#282723"/><path d="M38.936 105.958c.153 1.894-1.088 3.589-2.742 3.738l-.87-1.57c-1.654.175-3.134-1.246-3.265-3.14l-.109-1.296c-.152-1.893 1.088-3.588 2.742-3.762l.762-.075c1.654-.175 3.134 1.246 3.265 3.14l.217 2.965z" fill="#282723"/><path d="M37.239 101c.022.323.022.647.022.971-.11 2.243-1.11 4.062-2.373 4.436.044.997-.043 1.919-.174 2.716-.152.897-.957 2.866-.957 2.866-.066 1.57 1.893 2.467 3.873 2.666.523.05 1.023-2.915-.065-3.638-.522-.349-1.066-.772-1.153-1.071-.37-1.122-.13-1.496.196-2.193.63-1.047 1.675-1.172 1.675-1.172a.288.288 0 00.24-.149c.043-.224.043-.473.022-.723l-.262-2.841c-.108-.822-.5-1.495-1.044-1.868z" fill="#FFC6AC"/><path d="M36.695 116.723c.239 3.066-1.785 5.782-4.527 6.056-2.743.274-5.158-1.994-5.398-5.059-.24-3.065 1.785-5.781 4.527-6.055s5.158 1.968 5.398 5.058z" fill="#282723"/><path d="M249.003 64.517c-2.481 1.42-220.536 63.396-220.536 63.396s-8.64 8.497-8.03 14.877c.608 6.379 7.42 8.497 6.18 16.995" stroke="#0561FC" stroke-width="2" stroke-miterlimit="10"/><path d="M78.743 117.297l4.876-2.841.13-1.022-6.616 1.346 1.61 2.517z" fill="#E9D6B8"/><path d="M67.164 115.852l9.402-1.62.544.548.348-.698 2.394 3.564-1.806 3.289-12.884 1.944s-3.7 0-5.267-4.137c-.762-2.043 6.507-2.716 7.269-2.89z" fill="#D1DBEA"/><path d="M260.648 20.957l4.44 23.873 4.462 23.874h-48.164l19.631-23.873 19.631-23.874z" fill="#7EB3FF"/><path d="M234.378 62.723l-6.79 21.33c-12.493 39.299-49.84 71.719-84.423 74.087 1.284.1 2.568.149 3.896.149h22.221c35.65 0 75.434-33.392 88.406-74.21l6.79-21.331h-30.1v-.025z" fill="#7EB3FF"/><path d="M61.816 111.814l-3.347 1.102 1.515 6.035 3.347-1.101-1.516-6.036z" fill="#E9D6B8"/><path d="M75.413 158.663l-1.567 1.695 1.763 1.919 2.22-2.019-2.416-1.595z" fill="#7EB3FF"/><path d="M77.371 161.105l1.197 2.019s3.047.1 3.33.648c.283.523-.087 1.071-.087 1.071l-6.007.1-2.785-3.912.935-1.495c-.021-.025 1.916 3.065 3.417 1.569z" fill="#0561FC"/><path d="M66.446 129.208l24.071 7.003s6.486 1.271 3.896 5.931-15.54 19.288-15.54 19.288l-6.29-4.037 12.58-15.251-19.98-8.697 1.263-4.237z" fill="#0450CF"/><path d="M121.031 161.106l-7.117-3.614-.827 2.442 5.006 3.29c-.022 0 4.07.947 2.938-2.118z" fill="#9AC7F7"/><path d="M114.653 157.517l-25.55-15.575-22.483-10.167-8.336-1.595s1.676 7.626 10.273 11.114c8.597 3.489 18.325 7.626 18.325 7.626l25.551 15.574 2.22-6.977z" fill="#0561FC"/><path d="M117.243 163.024l.283 1.072h10.077s-.196-1.595-1.393-1.919c-1.197-.324-3.047-.947-3.047-.947l-2.59-1.072s.283 1.894-3.33 2.866z" fill="#0450CF"/><path d="M66.62 120.113l1.219 9.943 2.785 3.812-8.51 4.336s-4.722-7.75-4.722-9.644c0-1.918-1.502-9.494 2.568-10.441" fill="#D1DBEA"/><path d="M58.85 118.518l-.456-1.919 4.157-1.171 1.762 1.071-.37 1.271-5.092.748zm8.206 9.918c.152.274 4.788 2.292 4.788 2.292l-.392 1.147-3.09-.1-1.306-3.339z" fill="#D1DBEA"/><path d="M64.574 112.014c.218.448.065.997-.305 1.246l-3.156 1.993c-.391.25-.87.075-1.088-.349l-2.59-5.357c-.217-.449-.065-.997.305-1.246l3.156-1.994c.392-.249.87-.075 1.088.349l2.59 5.358z" fill="#E9D6B8"/><path d="M62.528 107.778s.175-.798.11-1.147c-.044-.174-.458-.697-.937-.722-.457 0-.544.598-.544.598s.74 0 .827.124c.087.1.544 1.147.544 1.147z" fill="#163F59"/><path d="M58.263 112.163s-1.48-1.744-1.676-2.417c-.196-.648-.348-1.121.261-1.595.914-.697 1.045-.473 1.35-1.121.304-.623.761-1.969 1-2.243.414-.448 1.263-.723 1.785.299.392.748.914.673.914.698 0 .125-.13.324-.348.673-.631 1.046-1.11 1.495-1.872 1.719-.761.224-2.241.573-2.11 1.246.13.673 1.022 2.368 1.022 2.542.022.199-.152.224-.326.199z" fill="#194866"/><path d="M60.025 113.135a.354.354 0 01-.108.424l-.675.424c-.13.074-.283.024-.37-.125l-.697-1.42a.354.354 0 01.11-.424l.674-.424c.13-.075.283-.025.37.125l.696 1.42zm4.071-2.567a.354.354 0 01-.11.424l-.674.424c-.13.074-.283.025-.37-.125l-.696-1.42a.354.354 0 01.109-.424l.674-.424c.13-.074.283-.025.37.125l.697 1.42z" fill="#E9D6B8"/><path d="M58.785 112.438s1.023 2.118 1.35 2.815c.304.648 1.197 1.894 4.33-.099 1.85-1.171 1.045-2.691.784-3.215-.196-.399-1.132-1.321-1.436-1.42l.413.872s-.783-.598-1.676-.05c-1.414.897-1.284 2.068-1.915 2.442-.479.299-1.262-.374-1.85-1.345z" fill="#194866"/><path d="M62.659 113.11l.979-.623c.13-.075.174-.274.109-.423l-.065-.15-1.437.922.065.15c.044.149.218.199.349.124z" fill="#E9D6B8"/><path d="M113.74 96.738s2.938-3.414-.131-7.875c-1.697-2.467-1.806-9.768 3.004-8.123 4.81 1.67 3.243-.972 5.963-.05 2.721.922 4.07 2.641 3.939 4.734-.108 2.094.566 5.956 2.22 6.504 1.654.549 7.204 5.01 2.938 10.94-4.265 5.931-19.914 3.065-17.933-6.13z" fill="#212957"/><path d="M116.612 80.764c4.549 1.57 3.395-.698 5.55-.174a7.633 7.633 0 01-.892 1.594c-1.633 2.268-4.963 3.414-8.358 3.49-.305-2.966.283-6.106 3.7-4.91z" fill="#3B4572"/><path d="M132.979 131.974l14.625 22.752s-.283.473-4.831-3.439c-4.788-4.137-9.533-8.099-11.209-10.242-1.697-2.143-3.068-8.846-2.546-9.195.566-.349 3.961.124 3.961.124z" fill="#F7B68B"/><path d="M116.395 96.912l2.589 17.943 5.768-1.994s3.33-9.644 3.199-11.363c-.021-.324-1.153-8.349-1.545-8.523-1.132-.498-2.242-.1-2.438-.075-3.482.35-4.962 1.296-4.962 1.296l-2.611 2.716z" fill="#0561FC"/><path d="M122.576 134.666l4.723 22.701s-6.137-6.902-7.791-11.537c-1.676-4.636-3.026-12.46-2.133-13.083.892-.623 5.201 1.919 5.201 1.919z" fill="#F7B68B"/><path d="M117.374 132.747c.892-.623 5.202 1.919 5.202 1.919l1.001 4.809a14.565 14.565 0 01-4.027.05 3.9 3.9 0 01-1.915-.798c-.544-3.04-.762-5.631-.261-5.98zm12.384 4.112c-.697-2.393-1.045-4.81-.718-5.009.544-.324 3.961.124 3.961.124l1.414 2.243c-.435.274-2.198 1.47-4.657 2.642z" fill="#EC9568"/><path d="M124.535 112.014l9.402 21.132s-8.705 6.18-16.323 5.183c-7.617-.997-2.982-20.135-2.982-20.135s2.612-7.401 4.049-8.348c1.436-.947 5.854 2.168 5.854 2.168z" fill="#0561FC"/><path d="M126.429 93.15l8.879 5.706s.218.025.545.15c.935.373.478.672-.806 3.937-.479 1.221-7.269-2.667-7.269-2.667l-1.349-7.127zm-10.099 3.837l8.945 7.526s2.764-2.168 3.003-1.595c.218.548 0 2.442 0 2.442s.784 1.047-2.502 3.24c-1.002.673-8.38-5.233-8.38-5.233l-.892-1.894c-.522-.972-.958-2.069-.609-3.14l.435-1.346z" fill="#0450CF"/><path d="M140.815 97.51s5.615-3.762 6.29-4.51c.674-.748 2.459-1.595.065-1.645-2.394-.025-7.726 3.19-9.119 3.838-1.35.648.87 2.866 2.764 2.317zm-20.938-8.597c-.479-2.118-1.437.798-1.437.798s1.067 2.641.74 4.81c.262.124 3.221 3.114 3.961-.25-1.675-1.794-2.938-3.987-3.264-5.358z" fill="#F7B68B"/><path d="M119.028 91.655c.435.398.936.697 1.524.822.391.075.761.075 1.131.025-.936-1.296-1.588-2.617-1.806-3.564-.479-2.118-1.437.798-1.437.798s.349.797.588 1.919z" fill="#EC9568"/><path d="M120.225 84.079s1.763 2.143 2.068 3.613c.326 1.47.805 3.34-.479 3.763-1.023.324-2.459-1.121-3.243-1.67-.761-.548.37-2.043-1.436-4.211-.653-.797 2.655-.399 3.09-1.495zm8.162 18.64l3.091-4.66 1.175 1.246s-2.481 7.974-5.876 7.65c-.087-.947.522-2.592 1.61-4.236zm-5.375 57.788l4.94-1.993-.849-2.417s-.761-.449-.827 0c-.37 1.968-5.049 4.236-3.264 4.41z" fill="#F7B68B"/><path d="M123.686 159.062c.065 0 .413 1.047 3.874-1.819l.479 1.196s-3.7 2.592-5.92 2.143c-.806-.149.674-.822 1.567-1.52z" fill="#212957"/><path d="M145.146 153.031c.174.225.195 1.171.195 1.171s5.071 2.791 6.443 2.243c.587-.224-.022-.698-1.306-1.42-1.241-.698-3.417-1.919-4.157-2.592-.762-.698-3.156-1.968-1.175.598z" fill="#F7B68B"/><path d="M150.347 154.95c.348 1.371-3.373.075-5.158-1.395 0 0-.239 1.47.087 1.495 2.873.274 4.222 2.342 6.486 1.395.5-.199.152-.772-1.415-1.495z" fill="#212957"/><path d="M138.072 95.193s2.415 2.442 2.742 2.317c.326-.15.566.947-.74 2.143-1.328 1.197-3.939 3.439-5.398 3.564-2.742.199-1.806-4.86-.783-5.034 1.023-.174 4.179-2.99 4.179-2.99z" fill="#0450CF"/><path d="M134.982 96.713s-.479.399.087 1.072c.283.349 1.001.473.827.797-.152.3-.37.872-.762.872-.391 0-1.327.648-1.327.648s-.697-.423-1.262-.648c-.566-.224-1.11-1.345-1.11-1.345s1.697-1.047 2.372-1.42c.805-.474 1.175.024 1.175.024z" fill="#F7B68B"/><path d="M151.762 94.171l-2.764.274c-.436.05-.828-.324-.871-.822-.044-.498.283-.947.718-.997l2.764-.274c.435-.05.827.324.871.822.043.524-.283.972-.718.997z" fill="#EC9568"/><path d="M146.452 91.605c.195-.574 3.547-.35 3.547-.35l1.524.424.74 1.296s-.653.474-.936.15c-.283-.324-1.263-.474-1.263-.474s-.631.947-1.436.698c-.849-.224-2.633-.499-2.176-1.745z" fill="#F7B68B"/><path d="M81.942 121.359l9.01-9.545 2.134-.398s-1.829 1.37-1.96 1.794c-.543 1.819-3.046 7.725-4.57 9.544-1.871 2.218-4.048 3.788-4.048 3.788l-.566-5.183z" fill="#E9D6B8"/><path d="M69.623 118.543l11.318 2.268.457.872.63-.648 1.546 5.108-3.177 2.966-15.431-3.439s-4.244-1.62-4.658-7.003c-.174-2.691 8.38-.274 9.315-.124z" fill="#B0BFDE"/><path d="M81.137 126.916s.087-3.688.065-5.632l.196.374.631-.648.522 1.769.436 2.642-.806.573-.282-.748-.762 1.67z" fill="#D1DBEA"/><path d="M83.749 113.434c-.283 0-.522-.274-.522-.598v-1.071c0-.324.239-.598.522-.598.283 0 .522.274.522.598v1.071c0 .324-.24.598-.522.598z" fill="#E9D6B8"/><path d="M84.684 112.961c-.282 0-.522-.274-.522-.598v-1.072c0-.324.24-.598.522-.598.283 0 .523.274.523.598v1.072c0 .324-.24.598-.523.598z" fill="#E9D6B8"/><path d="M85.642 112.462c-.282 0-.522-.274-.522-.598v-1.071c0-.324.24-.598.522-.598.283 0 .523.274.523.598v1.071c0 .324-.24.598-.523.598z" fill="#E9D6B8"/><path d="M86.6 111.964c-.282 0-.522-.274-.522-.598v-1.072c0-.324.24-.598.522-.598.283 0 .523.274.523.598v1.072c-.022.349-.24.598-.523.598z" fill="#E9D6B8"/><path d="M84.162 114.306s3.679-.822 3.744-2.018c.022-.449-1.306-.922-1.306-.922l-3.134 1.096c-.022 0-1.35 2.866.696 1.844zm10.468-4.485c.24-.2.283-.548.109-.823l-.544-.872c-.174-.274-.48-.324-.719-.124a.625.625 0 00-.108.822l.544.872c.152.274.478.324.718.125z" fill="#E9D6B8"/><path d="M93.608 110.07a.625.625 0 00.108-.822l-.544-.873c-.174-.274-.479-.323-.718-.124a.624.624 0 00-.109.822l.544.872c.174.25.48.324.719.125z" fill="#E9D6B8"/><path d="M92.584 110.319a.625.625 0 00.109-.822l-.544-.872c-.174-.275-.479-.324-.719-.125a.625.625 0 00-.108.822l.544.872c.174.25.5.299.718.125z" fill="#E9D6B8"/><path d="M91.583 110.543a.625.625 0 00.109-.822l-.544-.872c-.174-.274-.479-.324-.718-.125a.626.626 0 00-.11.823l.545.872a.473.473 0 00.718.124z" fill="#E9D6B8"/><path d="M93.499 111.366c-.653.573-2.177 1.246-2.83.324-.239-.349.588-1.645.588-1.645l3.112-1.196s.914.922-.87 2.517z" fill="#E9D6B8"/><path d="M38.828 122.306l11.47 17.867 11.164 22.652-3.526.797s-7.791-13.556-9.402-17.319c-1.197-2.766-10.882-11.064-11.339-13.905-.478-2.816.218-11.214 1.633-10.092z" fill="#0450CF"/><path d="M39.24 134.043l-.5 11.064.936 19.238-2.699.349s-3.286-13.781-3.047-16.846c.24-3.065.349-4.436.349-4.436l-1.48-11.811c-.088-.399-.675-2.617-.632-3.016.196-1.47.784-6.18 1.807-6.877 1.284-.898 4.7-.574 4.7-.574l.567 12.909z" fill="#0561FC"/><path d="M36.15 110.743s-3.765.648-4.701 2.542c-1.11 2.242.5 6.504.5 6.504l2.003 2.018s3.09-.972 4.505-.448c1.414.548-.109-10.392-.109-10.392l-2.198-.224z" fill="#FF9A1A"/><path d="M32.212 112.387s-3.287 3.215-5.05 6.579-4.57 9.943-4.57 10.89c0 .947 2.85 2.118 4.962 1.72 2.111-.399 1.132-3.589 1.262-4.262.11-.673 4.114-9.27 4.114-9.27s.936-5.258-.718-5.657z" fill="#FFA606"/><path d="M25.986 128.386c.631-.673 3.983-2.542 7.748-3.09 3.744-.548 4.92-.947 4.92-.947s1.153.723-2.112 2.691c-.784.474-4.919 3.364-7.748 3.888-2.808.548-4.44-.798-2.808-2.542z" fill="#FFC6AC"/><path d="M38.675 124.349l2.59-1.271 1.436 1.122-.609 1.819s-2.068.349-2.568-.125c-.523-.473-1.284-.623-.849-1.545zm14.146-3.04l.566.598 1.654-.175 1.284-1.121s-.936-1.171-1.131-1.545c-.218-.374-2.786 1.047-2.373 2.243z" fill="#FFC6AC"/><path d="M264.653 85.799l-4.527-9.495s-1.35-.523-1.089.698c.262 1.22 2.286 8.572 2.286 8.572s3.351 4.162 3.33.225z" fill="#EC9568"/><path d="M270.855 96.015s-2.373.823-5.267-3.613c-2.895-4.436-4.571-6.629-4.462-6.953.109-.348.784-2.068 1.589-2.192.827-.1 1.523-.2 1.806.124.283.324 7.4 8.373 8.053 9.146 1.306 1.57-1.219 3.14-1.719 3.488z" fill="#9AC7F7"/><path d="M268.046 86.322s-1.088 1.968-2.285 2.068c-1.197.1-1.784-3.115-1.784-5.283s2.089-4.261 2.285-4.884c.196-.623 2.285 1.445 2.285 3.314 0 1.87-.501 4.262-.501 4.785zm-10.336-.723l-4.527-9.494s-1.349-.524-1.088.697c.261 1.221 2.285 8.573 2.285 8.573s3.352 4.161 3.33.224z" fill="#EC9568"/><path d="M252.704 77.75s-1.132-1.296-1.72-1.894c-.587-.599-1.98-2.592-2.089-3.09l-.109-.499 1.415 1.695-.305-.972s-.849-.997-.914-1.196c-.065-.2-.044-.449-.044-.449.022-.498.262-.424.262-.424l1.131 1.122.719 1.046-.218-1.071s-.979-.872-1.023-1.072c-.043-.174.174-.398.174-.398l1.35 1.295.827 2.069s.217-.15.065-.623c-.152-.474-.152-.823-.065-1.022.108-.2.587 1.121.631 1.396.043.274.696 1.146.5 2.143-.196 1.021-.587 1.943-.587 1.943z" fill="#EC9568"/><path d="M275.382 154.302s.109 1.147.109 1.52c0 .349-.674 1.371-.718 1.645l-.044.299h5.071s.109-.598-.718-1.37c-.827-.773-1.088-1.296-1.197-2.268-.13-.997-2.503.174-2.503.174zm-8.857.15l.522 3.19h-7.9s-.044-.997.87-1.296c.936-.299 3.461-1.171 4.136-2.118.674-.972 2.372.224 2.372.224z" fill="#C5E1F9"/><path d="M275.599 154.203l-7.748-31.847-1.154-13.831v-.797l4.418.099s2.786 3.464 2.721 7.975c-.087 4.535-.24 14.727.392 16.671.609 1.944 2.241 5.233 2.394 7.276.152 2.044.936 14.279.936 14.279l-1.959.175z" fill="#212957"/><path d="M262.041 107.902s-1.545 3.015-1.153 8.348c.392 5.333 3.417 37.778 3.417 37.778l2.329.1s.783-12.41.457-15.425c-.305-3.015-1.154-6.13-1.089-6.654.066-.523 4.266-16.945 3.962-18.365-.305-1.421-1.85-5.757-2.09-5.857-.261-.099-5.833.075-5.833.075z" fill="#3B47BC"/><path d="M262.281 109.671s-.153 17.469.783 22.179c.936 4.71 1.85 18.091 1.85 20.035" stroke="#7EB3FF" stroke-miterlimit="10"/><path d="M262.889 92.028l2.242-1.32 4.179-.1s2.176.349 3.09 2.666c.327.798-.457 12.336-.544 13.93l-.087 1.595-10.229-.797c.044 0-.196-14.553 1.349-15.974z" fill="#C5E1F9"/><path d="M264.608 96.09s-2.328.997-5.463-3.214c-3.134-4.212-4.94-6.28-4.853-6.629.087-.349.653-2.143 1.48-2.293.805-.174 1.524-.299 1.806 0 .283.3 5.92 8.174 6.464 9.071.545.872 1.045 2.667.566 3.065z" fill="#9AC7F7"/><path d="M269.876 85.923l-.305 4.784s.152.673-1.153.798c-1.785.174-2.547-.623-2.547-.623s1.001-2.218.849-5.233c-.196-3.016 3.156.274 3.156.274z" fill="#F7B68B"/><path d="M266.764 76.952s2.263-.623 4.483 1.32c1.328 1.147 2.089 3.19 1.393 4.885-.696 1.694-2.242 3.912-3.025 3.912-.784 0-2.481-1.32-2.721-1.869-.239-.523-.239-.897-.392-2.043-.152-1.147-.696-.798-.696-.524 0 .275-.305 1.072-.457.524-.131-.524-3.308-4.336 1.415-6.205z" fill="#212957"/><path d="M271.683 80.94c1.863 0 3.373-1.663 3.373-3.714 0-2.05-1.51-3.713-3.373-3.713-1.863 0-3.373 1.663-3.373 3.713s1.51 3.713 3.373 3.713z" fill="#212957"/><path d="M257.71 85.599l-4.527-9.494s-1.349-.524-1.088.697c.261 1.221 2.285 8.573 2.285 8.573s3.352 4.161 3.33.224zm2.023-9.22s-1.371.05-1.611-.275a70 70 0 01-1.045-1.67l-.174-.373s.24-.473.784.424c.522.897.479.274.479.274l-.196-1.047-.174-1.32-.131-.574s-.109-.324-.065-.423c.087-.3.239-.125.239-.125l.697 2.143-.174-2.218s.021-.299.152-.348c.109-.05.13.05.13.05l.697 2.416.022-1.17s.021-.275.152-.35c.131-.074.174-.074.174-.074l.435 4.46-.391.2z" fill="#EC9568"/><path d="M258.862 73.264l-.043-1.57s-.044-.35.022-.524c.087-.199.239-.15.239-.15l.261 2.343-.479-.1zm-13.689 6.753l.914-9.918s-5.115 9.146-3.526 12.21c1.567 3.066 2.612-2.292 2.612-2.292z" fill="#EC9568"/><path d="M245.499 73.214s-1.415-.474-1.589-.897c-.152-.449-.653-2.118-.653-2.118l-.087-.449s.37-.399.696.748c.327 1.146.436.473.436.473l.043-1.171.153-1.42v-.648s-.022-.35.021-.449c.174-.274.283-.025.283-.025l.196 2.467.37-2.342s.087-.3.239-.3c.131 0 .131.1.131.1l.131 2.766.304-1.196s.087-.274.24-.299c.152-.025.196-.025.196-.025l-.632 4.76-.478.025z" fill="#EC9568"/><path d="M251.746 94.969s.783 1.37-1.741-.25c-4.288-2.79-7.444-7.251-8.075-8.098-.631-.848-1.502-2.069-.892-4.237.479-1.67.609-2.218.609-2.218l3.221.673-.108 1.072-.131.573s2.59 2.866 5.18 5.358c2.612 2.517 1.937 7.127 1.937 7.127z" fill="#0450CF"/><path d="M255.38 156.67c-.153-.15-.131-.673-.131-.673s2.307-.698 3.091-.623c.196.025.565.149.892.299.065.025.174.224.239.249.109.05.131-.075.218-.025.218.125.392.199.392.224.37 1.197.152 1.745.152 1.745s-1.85 1.021-2.329.623c-1.284-.947-2.176-1.471-2.524-1.819zm-11.797-.573l-.153 2.043-1.784.224s-.131-.274-.283-.249c-.131.025-.261.324-.435.349-.37.05-.784.1-.958.125-.327.049-3.591.448-3.591.448s-.109-.424-.044-.573c.044-.075.327-.249.523-.324.892-.399 3.46-1.67 3.808-2.716.479-1.346 2.917.673 2.917.673z" fill="#161711"/><path d="M244.716 89.312l.13-2.492s-1.501-.324-1.567-1.32c-.152-1.994 1.001-4.735 1.546-5.433 1.523-2.018 2.894-5.93 6.768-1.296 1.48 1.77-2.633 6.853-3.134 8.1-.5 1.22-.239 2.89-.239 2.89l-1.306.598-2.198-1.047z" fill="#F7B68B"/><path d="M252.638 130.703s-2.785 5.757-1.218 10.043c2.785 7.625 4.505 13.382 5.419 15.924.348.996.588.747.588.747l1.98-.075.805-1.071-5.092-17.643-2.482-7.925z" fill="#163F59"/><path d="M237.184 83.132l.914-9.918s-5.114 9.146-3.525 12.21c1.567 3.04 2.611-2.292 2.611-2.292z" fill="#F7B68B"/><path d="M242.473 116.724s6.051 17.244 10.121 26.514c2.394 5.433 2.328-2.492 2.328-2.492l-5.832-30.825-9.402.199s1.066 1.346 2.785 6.604z" fill="#163F59"/><path d="M248.699 115.403s-8.466 21.705-9.01 22.851c-1.872 3.888-2.808-1.943-3.004-3.414-.196-1.47.784-11.861 2.133-19.287l1.349-7.451 8.532 7.301z" fill="#163F59"/><path d="M240.733 131.028s.827 3.214 1.632 7.351c.609 3.04 1.436 11.812 1.502 17.992 0 .374-3.483-.349-3.483-.349s-2.829-16.92-3.482-20.708c-.631-3.813 1.458-6.778 3.831-4.286z" fill="#163F59"/><path d="M251.397 91.829l-2.459-2.617-1.045-1.42-4.266-.349-.805 1.545-3.395 1.695s-.892 1.62-.414 7.824c.501 6.878-1.958 16.547-.696 17.494 8.249 6.18 12.101.573 12.101.573s3.286-13.282.979-24.745z" fill="#387BFF"/><path d="M245.564 96.613s-.391 1.197-2.894-.448c-4.288-2.791-7.444-7.252-8.075-8.099-.631-.847-1.502-2.068-.892-4.236.479-1.67.609-2.218.609-2.218l3.221.673-.108 1.071-.131.573s2.59 2.866 5.18 5.358c2.59 2.517 3.09 7.326 3.09 7.326z" fill="#387BFF"/><path d="M245.977 81.138s.61-.199.588.275c-.022.473-.544 1.42-.805 1.42-.262.025-.632 1.246-.632 1.246l.327 1.57 3.265.997s1.131-.2 1.392-.997c.283-.797 2.438-6.404 2.438-6.404l-1.959-2.094s-1.044-1.071-1.828-1.594c-1.197-.823-1.654-.125-1.698.323-.065.424-.478.35-1.001.2-.522-.15-1.262.1-1.066.473.087.15-.522.35-.414.847.153.723 1.089 1.222.936 2.268-.087.474-.283 2.044.457 1.47z" fill="#194866"/><path d="M237.033 74.983s1.392.598 1.741.324c.37-.249 1.632-1.27 1.632-1.27l.305-.3s-.087-.573-.936.125c-.849.698-.588.1-.588.1l.566-.972.609-1.246.327-.523s.218-.275.218-.4c0-.323-.218-.199-.218-.199l-1.437 1.87.915-2.144s.065-.299-.044-.398c-.109-.1-.152 0-.152 0l-1.524 2.143.37-1.172s.065-.299-.043-.398l-.131-.15-1.937 4.261.327.35z" fill="#F7B68B"/></g><defs><clipPath id="clip0"><path fill="#fff" d="M0 0h322v186H0z"/></clipPath></defs></svg>