<svg width="264" height="249" fill="none" xmlns="http://www.w3.org/2000/svg"><path opacity=".1" d="M95.603 108.681c41.11-4.514 82.42.571 112.627 9.199 30.507 8.799 49.912 21.198 54.613 35.425 4.701 14.398-5.401 28.968-21.605 43.823-16.504 14.627-39.21 29.483-66.516 39.939-52.412 21.54-119.428 11.142-158.537-30.225-39.11-41.082-5.302-90.219 79.418-98.161z" fill="#005F9B"/><path d="M139.3 79.8l27 15.4-27.2 15.7-27-15.4 27.2-15.7z" fill="#DBE4E9"/><path d="M139.3 79.8l27 15.4-27.2 15.7-27-15.4 27.2-15.7z" fill="#DBE4E9"/><path d="M113 94.9l26.3-15.1 26.1 14.9-26.3 15.2-26.1-15z" fill="#AEC4DB"/><path d="M166.3 95.2l.3 31.4-27.2 15.7-.3-31.4 27.2-15.7z" fill="#E4EEF3"/><path d="M166.1 95.1l.3 31.3-27.1 15.7-.4-31.4 27.2-15.6z" fill="#DBE4E9"/><path d="M166.3 95.2l.3 31.4-27.2 15.7-.3-31.4 27.2-15.7z" fill="#BCD0E2"/><path d="M139.1 110.9l.3 31.4-27-15.5-.3-31.3 27 15.4z" fill="#AEC4DB"/><path d="M139.3 110.7l.3 31.4-27-15.4-.3-31.4 27 15.4z" fill="#DBE4E9"/><path d="M139.1 110.9l.3 31.4-27-15.5-.3-31.3 27 15.4z" fill="#BCD0E2"/><path d="M103.5 100.9l27 15.4-27.1 15.7-27-15.5 27.1-15.6z" fill="#DBE4E9"/><path d="M103.5 100.9l27 15.4-27.1 15.7-27-15.5 27.1-15.6z" fill="#DBE4E9"/><path d="M77.3 116l26.2-15.2 26.1 15-26.2 15.1L77.3 116z" fill="#AEC4DB"/><path d="M130.5 116.3l.3 31.3-27.1 15.7-.3-31.3 27.1-15.7z" fill="#E4EEF3"/><path d="M130.4 116.1l.3 31.4-27.2 15.7-.3-31.4 27.2-15.7z" fill="#DBE4E9"/><path d="M130.5 116.3l.3 31.3-27.1 15.7-.3-31.3 27.1-15.7z" fill="#BCD0E2"/><path d="M103.4 132l.3 31.3-27-15.4-.3-31.4 27 15.5z" fill="#C4D1E1"/><path d="M103.5 131.8l.3 31.4-27-15.5-.3-31.3 27 15.4z" fill="#DBE4E9"/><path d="M103.4 132l.3 31.3-27-15.4-.3-31.4 27 15.5z" fill="#BCD0E2"/><path d="M67.8 121.9l27 15.5L67.6 153l-27-15.4 27.2-15.7z" fill="#DBE4E9"/><path d="M67.9 121.8l27 15.4-27.1 15.7-27-15.4 27.1-15.7z" fill="#DBE4E9"/><path d="M67.8 121.9l27 15.5L67.6 153l-27-15.4 27.2-15.7z" fill="#AEC4DB"/><path d="M94.8 137.4l.3 31.3-27.2 15.7-.3-31.4 27.2-15.6z" fill="#E4EEF3"/><path d="M94.6 137.2l.3 31.3-27.1 15.7-.4-31.3 27.2-15.7z" fill="#DBE4E9"/><path d="M94.8 137.4l.3 31.3-27.2 15.7-.3-31.4 27.2-15.6z" fill="#BCD0E2"/><path d="M67.6 153l.3 31.4-27-15.4-.3-31.4 27 15.4z" fill="#C4D1E1"/><path d="M67.9 152.8l.3 31.3-27-15.4-.3-31.4 27 15.5z" fill="#DBE4E9"/><path d="M67.6 153l.3 31.4-27-15.4-.3-31.4 27 15.4zm106.5-52.8l27 15.5-27.2 15.6-27-15.4 27.2-15.7z" fill="#DBE4E9"/><path d="M174.1 100.2l27 15.5-27.2 15.6-27-15.4 27.2-15.7z" fill="#DBE4E9"/><path d="M147.8 115.4l26.3-15.2 26.1 14.9-26.3 15.2-26.1-14.9z" fill="#AEC4DB"/><path d="M201.1 115.7l.3 31.3-27.2 15.7-.3-31.4 27.2-15.6z" fill="#E4EEF3"/><path d="M200.9 115.5l.3 31.3-27.2 15.7-.3-31.3 27.2-15.7z" fill="#DBE4E9"/><path d="M201.1 115.7l.3 31.3-27.2 15.7-.3-31.4 27.2-15.6z" fill="#BCD0E2"/><path d="M173.9 131.3l.3 31.4-27-15.4-.3-31.4 27 15.4z" fill="#C4D1E1"/><path d="M174.1 131.2l.3 31.3-27-15.4-.3-31.4 27 15.5z" fill="#DBE4E9"/><path d="M173.9 131.3l.3 31.4-27-15.4-.3-31.4 27 15.4z" fill="#BCD0E2"/><path d="M138.3 121.3l27 15.4-27.2 15.7-26.9-15.4 27.1-15.7z" fill="#DBE4E9"/><path d="M138.3 121.3l27 15.4-27.2 15.7-26.9-15.4 27.1-15.7z" fill="#DBE4E9"/><path d="M112.1 136.4l26.2-15.1 26.1 14.9-26.3 15.2-26-15z" fill="#AEC4DB"/><path d="M165.3 136.7l.3 31.4-27.1 15.7-.4-31.4 27.2-15.7z" fill="#E4EEF3"/><path d="M165.2 136.6l.3 31.3-27.2 15.7-.3-31.4 27.2-15.6z" fill="#DBE4E9"/><path d="M165.3 136.7l.3 31.4-27.1 15.7-.4-31.4 27.2-15.7z" fill="#BCD0E2"/><path d="M138.1 152.4l.4 31.4-27-15.5-.3-31.3 26.9 15.4z" fill="#C4D1E1"/><path d="M138.3 152.2l.3 31.4-27-15.4-.3-31.4 27 15.4z" fill="#DBE4E9"/><path d="M138.1 152.4l.4 31.4-27-15.5-.3-31.3 26.9 15.4z" fill="#BCD0E2"/><path d="M102.6 142.4l27 15.4-27.2 15.7-27-15.5 27.2-15.6z" fill="#DBE4E9"/><path d="M102.7 142.2l27 15.4-27.1 15.7-27-15.4 27.1-15.7z" fill="#DBE4E9"/><path d="M102.6 142.4l27 15.4-27.2 15.7-27-15.5 27.2-15.6z" fill="#AEC4DB"/><path d="M129.6 157.8l.3 31.3-27.2 15.7-.3-31.3 27.2-15.7z" fill="#BCD0E2"/><path d="M129.4 157.6l.3 31.4-27.2 15.7-.3-31.4 27.2-15.7z" fill="#DBE4E9"/><path d="M129.6 157.8l.3 31.3-27.2 15.7-.3-31.3 27.2-15.7z" fill="#BCD0E2"/><path d="M102.4 173.5l.3 31.3-27-15.4-.3-31.4 27 15.5z" fill="#C4D1E1"/><path d="M102.7 173.2l.3 31.4-27-15.5-.3-31.3 27 15.4z" fill="#DBE4E9"/><path d="M102.4 173.5l.3 31.3-27-15.4-.3-31.4 27 15.5zm106.5-52.9l27 15.5-27.2 15.7-27-15.5 27.2-15.7z" fill="#DBE4E9"/><path d="M209 120.5l27 15.4-27.1 15.7-27-15.4 27.1-15.7z" fill="#DBE4E9"/><path d="M208.9 120.6l27 15.5-27.2 15.7-27-15.5 27.2-15.7z" fill="#AEC4DB"/><path d="M235.9 136.1l.3 31.3-27.2 15.7-.3-31.3 27.2-15.7z" fill="#E4EEF3"/><path d="M235.7 135.9l.3 31.4-27.2 15.7-.3-31.4 27.2-15.7z" fill="#DBE4E9"/><path d="M235.9 136.1l.3 31.3-27.2 15.7-.3-31.3 27.2-15.7z" fill="#E4EEF3"/><path d="M208.7 151.8l.3 31.3-27-15.4-.3-31.4 27 15.5z" fill="#C4D1E1"/><path d="M208.9 151.6l.3 31.4-27-15.5-.3-31.3 27 15.4z" fill="#DBE4E9"/><path d="M208.7 151.8l.3 31.3-27-15.4-.3-31.4 27 15.5z" fill="#BCD0E2"/><path d="M173.1 141.7l27 15.4-27.2 15.7-27-15.4 27.2-15.7z" fill="#BDCFE8"/><path d="M146.8 156.9l26.3-15.2 26.1 14.9-26.3 15.2-26.1-14.9z" fill="#AAB8CD"/><path d="M173.3 141.6l27 15.4-27.2 15.7-27-15.5 27.2-15.6z" fill="#DBE4E9"/><path d="M147 156.7l26.3-15.2 26.1 14.9-26.3 15.2-26.1-14.9z" fill="#DBE4E9"/><path d="M173.3 141.6l27 15.4-27.2 15.7-27-15.5 27.2-15.6z" fill="#DBE4E9"/><path d="M173.1 141.7l27 15.4-27.2 15.7-27-15.4 27.2-15.7z" fill="#AEC4DB"/><path d="M146.8 156.9l26.3-15.2 26.1 14.9-26.3 15.2-26.1-14.9z" fill="#AEC4DB"/><path d="M173.1 141.7l27 15.4-27.2 15.7-27-15.4 27.2-15.7z" fill="#AEC4DB"/><path d="M200.1 157.1l.3 31.4-27.1 15.7-.4-31.4 27.2-15.7z" fill="#E4EEF3"/><path d="M199.9 157l.4 31.3-27.2 15.7-.3-31.3 27.1-15.7z" fill="#DBE4E9"/><path d="M200.1 157.1l.3 31.4-27.1 15.7-.4-31.4 27.2-15.7z" fill="#E4EEF3"/><path d="M172.9 172.8l.4 31.4-27-15.4-.4-31.4 27 15.4z" fill="#C4D1E1"/><path d="M173.1 172.7l.3 31.3-27-15.4-.3-31.4 27 15.5z" fill="#DBE4E9"/><path d="M172.9 172.8l.4 31.4-27-15.4-.4-31.4 27 15.4z" fill="#BCD0E2"/><path d="M137.4 162.8l27 15.4-27.2 15.7-27-15.4 27.2-15.7z" fill="#DBE4E9"/><path d="M137.5 162.6l27 15.4-27.1 15.7-27-15.4 27.1-15.7z" fill="#DBE4E9"/><path d="M137.4 162.8l27 15.4-27.2 15.7-27-15.4 27.2-15.7z" fill="#AEC4DB"/><path d="M164.4 178.2l.3 31.4-27.2 15.7-.3-31.4 27.2-15.7z" fill="#E4EEF3"/><path d="M164.2 178l.3 31.4-27.2 15.7-.3-31.4 27.2-15.7z" fill="#DBE4E9"/><path d="M164.4 178.2l.3 31.4-27.2 15.7-.3-31.4 27.2-15.7z" fill="#E4EEF3"/><path d="M137.2 193.9l.3 31.4-27-15.5-.3-31.3 27 15.4z" fill="#C4D1E1"/><path d="M137.5 193.6l.3 31.4-27-15.4-.3-31.4 27 15.4z" fill="#DBE4E9"/><path d="M137.2 193.9l.3 31.4-27-15.5-.3-31.3 27 15.4zm2.1-154l27 15.4L139.1 71l-27-15.4 27.2-15.7z" fill="#DBE4E9"/><path d="M139.3 39.9l27 15.4L139.1 71l-27-15.4 27.2-15.7z" fill="#DBE4E9"/><path d="M113 55l26.3-15.1 26.1 14.9L139.1 70 113 55z" fill="#AEC4DB"/><path d="M166.3 55.3l.3 31.4-27.2 15.7-.3-31.4 27.2-15.7z" fill="#E4EEF3"/><path d="M166.1 55.2l.3 31.3-27.1 15.7-.4-31.3 27.2-15.7z" fill="#DBE4E9"/><path d="M166.3 55.3l.3 31.4-27.2 15.7-.3-31.4 27.2-15.7z" fill="#BCD0E2"/><path d="M139.1 71l.3 31.4-27-15.5-.3-31.3 27 15.4z" fill="#AEC4DB"/><path d="M139.3 70.9l.3 31.3-27-15.4-.3-31.4 27 15.5z" fill="#DBE4E9"/><path d="M139.1 71l.3 31.4-27-15.5-.3-31.3 27 15.4z" fill="#BCD0E2"/><path d="M103.5 61l27 15.4-27.1 15.7-27-15.5L103.5 61z" fill="#DBE4E9"/><path d="M103.5 61l27 15.4-27.1 15.7-27-15.5L103.5 61z" fill="#DBE4E9"/><path d="M77.3 76.1l26.2-15.2 26.1 15L103.4 91 77.3 76.1z" fill="#AEC4DB"/><path d="M130.5 76.4l.3 31.4-27.1 15.6-.3-31.3 27.1-15.7z" fill="#E4EEF3"/><path d="M130.4 76.2l.3 31.4-27.2 15.7-.3-31.4 27.2-15.7z" fill="#DBE4E9"/><path d="M130.5 76.4l.3 31.4-27.1 15.6-.3-31.3 27.1-15.7z" fill="#BCD0E2"/><path d="M103.4 92.1l.3 31.3-27-15.4-.3-31.4 27 15.5z" fill="#C4D1E1"/><path d="M103.5 91.9l.3 31.4-27-15.5-.3-31.3 27 15.4z" fill="#DBE4E9"/><path d="M103.4 92.1l.3 31.3-27-15.4-.3-31.4 27 15.5z" fill="#BCD0E2"/><path d="M67.8 82l27 15.5-27.2 15.7-27-15.5L67.8 82z" fill="#DBE4E9"/><path d="M67.9 81.9l27 15.4L67.8 113l-27-15.4 27.1-15.7z" fill="#DBE4E9"/><path d="M67.8 82l27 15.5-27.2 15.7-27-15.5L67.8 82z" fill="#AEC4DB"/><path d="M94.8 97.5l.3 31.3-27.2 15.7-.3-31.3 27.2-15.7z" fill="#E4EEF3"/><path d="M94.6 97.3l.3 31.4-27.1 15.6-.4-31.3 27.2-15.7z" fill="#DBE4E9"/><path d="M94.8 97.5l.3 31.3-27.2 15.7-.3-31.3 27.2-15.7z" fill="#BCD0E2"/><path d="M67.6 113.2l.3 31.3-27-15.4-.3-31.4 27 15.5z" fill="#C4D1E1"/><path d="M67.9 112.9l.3 31.3-27-15.4-.3-31.4 27 15.5z" fill="#DBE4E9"/><path d="M67.6 113.2l.3 31.3-27-15.4-.3-31.4 27 15.5zm106.5-52.9l27 15.4-27.2 15.7-27-15.4 27.2-15.7z" fill="#DBE4E9"/><path d="M174.1 60.3l27 15.4-27.2 15.7-27-15.4 27.2-15.7z" fill="#DBE4E9"/><path d="M147.8 75.5l26.3-15.2 26.1 14.9-26.3 15.2-26.1-14.9z" fill="#AEC4DB"/><path d="M201.1 75.7l.3 31.4-27.2 15.7-.3-31.4 27.2-15.7z" fill="#E4EEF3"/><path d="M200.9 75.6l.3 31.3-27.2 15.7-.3-31.3 27.2-15.7z" fill="#DBE4E9"/><path d="M201.1 75.7l.3 31.4-27.2 15.7-.3-31.4 27.2-15.7z" fill="#BCD0E2"/><path d="M173.9 91.4l.3 31.4-27-15.4-.3-31.4 27 15.4z" fill="#C4D1E1"/><path d="M174.1 91.3l.3 31.3-27-15.4-.3-31.4 27 15.5z" fill="#DBE4E9"/><path d="M173.9 91.4l.3 31.4-27-15.4-.3-31.4 27 15.4z" fill="#BCD0E2"/><path d="M138.3 81.4l27 15.4-27.2 15.7-26.9-15.4 27.1-15.7z" fill="#DBE4E9"/><path d="M138.3 81.4l27 15.4-27.2 15.7-26.9-15.4 27.1-15.7z" fill="#DBE4E9"/><path d="M112.1 96.5l26.2-15.1 26.1 14.9-26.3 15.2-26-15z" fill="#AEC4DB"/><path d="M165.3 96.8l.3 31.4-27.1 15.7-.4-31.4 27.2-15.7z" fill="#E4EEF3"/><path d="M165.2 96.7l.3 31.3-27.2 15.7-.3-31.4 27.2-15.6z" fill="#DBE4E9"/><path d="M165.3 96.8l.3 31.4-27.1 15.7-.4-31.4 27.2-15.7z" fill="#BCD0E2"/><path d="M138.1 112.5l.4 31.4-27-15.5-.3-31.3 26.9 15.4z" fill="#C4D1E1"/><path d="M138.3 112.3l.3 31.4-27-15.4-.3-31.4 27 15.4z" fill="#DBE4E9"/><path d="M138.1 112.5l.4 31.4-27-15.5-.3-31.3 26.9 15.4z" fill="#BCD0E2"/><path d="M102.6 102.5l27 15.4-27.2 15.7-27-15.5 27.2-15.6z" fill="#DBE4E9"/><path d="M102.7 102.3l27 15.4-27.1 15.7-27-15.4 27.1-15.7z" fill="#DBE4E9"/><path d="M102.6 102.5l27 15.4-27.2 15.7-27-15.5 27.2-15.6z" fill="#AEC4DB"/><path d="M129.6 117.9l.3 31.3-27.2 15.7-.3-31.3 27.2-15.7z" fill="#BCD0E2"/><path d="M129.4 117.7l.3 31.4-27.2 15.7-.3-31.4 27.2-15.7z" fill="#DBE4E9"/><path d="M129.6 117.9l.3 31.3-27.2 15.7-.3-31.3 27.2-15.7z" fill="#BCD0E2"/><path d="M102.4 133.6l.3 31.3-27-15.4-.3-31.4 27 15.5z" fill="#C4D1E1"/><path d="M102.7 133.3l.3 31.4-27-15.5-.3-31.3 27 15.4z" fill="#DBE4E9"/><path d="M102.4 133.6l.3 31.3-27-15.4-.3-31.4 27 15.5zm106.5-52.8l27 15.4-27.2 15.7-27-15.5 27.2-15.6z" fill="#DBE4E9"/><path d="M209 80.6L236 96l-27.1 15.7-27-15.4L209 80.6z" fill="#DBE4E9"/><path d="M208.9 80.8l27 15.4-27.2 15.7-27-15.5 27.2-15.6z" fill="#AEC4DB"/><path d="M235.9 96.2l.3 31.3-27.2 15.7-.3-31.3 27.2-15.7z" fill="#E4EEF3"/><path d="M235.7 96l.3 31.4-27.2 15.7-.3-31.4L235.7 96z" fill="#DBE4E9"/><path d="M235.9 96.2l.3 31.3-27.2 15.7-.3-31.3 27.2-15.7z" fill="#E4EEF3"/><path d="M208.7 111.9l.3 31.3-27-15.4-.3-31.4 27 15.5z" fill="#C4D1E1"/><path d="M208.9 111.7l.3 31.4-27-15.5-.3-31.3 27 15.4z" fill="#DBE4E9"/><path d="M208.7 111.9l.3 31.3-27-15.4-.3-31.4 27 15.5z" fill="#BCD0E2"/><path d="M173.1 101.8l27 15.5-27.2 15.6-27-15.4 27.2-15.7z" fill="#DBE4E9"/><path d="M173.3 101.7l27 15.4-27.2 15.7-27-15.4 27.2-15.7z" fill="#DBE4E9"/><path d="M173.1 101.8l27 15.5-27.2 15.6-27-15.4 27.2-15.7z" fill="#AEC4DB"/><path d="M200.1 117.3l.3 31.3-27.1 15.7-.4-31.4 27.2-15.6z" fill="#E4EEF3"/><path d="M199.9 117.1l.4 31.3-27.2 15.7-.3-31.3 27.1-15.7z" fill="#DBE4E9"/><path d="M200.1 117.3l.3 31.3-27.1 15.7-.4-31.4 27.2-15.6z" fill="#E4EEF3"/><path d="M172.9 132.9l.4 31.4-27-15.4-.4-31.4 27 15.4z" fill="#C4D1E1"/><path d="M173.1 132.8l.3 31.3-27-15.4-.3-31.3 27 15.4z" fill="#DBE4E9"/><path d="M172.9 132.9l.4 31.4-27-15.4-.4-31.4 27 15.4z" fill="#BCD0E2"/><path d="M137.4 122.9l27 15.4-27.2 15.7-27-15.4 27.2-15.7z" fill="#DBE4E9"/><path d="M137.5 122.7l27 15.5-27.1 15.6-27-15.4 27.1-15.7z" fill="#DBE4E9"/><path d="M137.4 122.9l27 15.4-27.2 15.7-27-15.4 27.2-15.7z" fill="#AEC4DB"/><path d="M164.4 138.3l.3 31.4-27.2 15.7-.3-31.4 27.2-15.7z" fill="#E4EEF3"/><path d="M164.2 138.2l.3 31.3-27.2 15.7-.3-31.4 27.2-15.6z" fill="#DBE4E9"/><path d="M164.4 138.3l.3 31.4-27.2 15.7-.3-31.4 27.2-15.7z" fill="#E4EEF3"/><path d="M137.2 154l.3 31.4-27-15.5-.3-31.3 27 15.4z" fill="#C4D1E1"/><path d="M137.5 153.7l.3 31.4-27-15.4-.3-31.4 27 15.4z" fill="#DBE4E9"/><path d="M137.2 154l.3 31.4-27-15.5-.3-31.3 27 15.4z" fill="#DBE4E9"/><path d="M139.3 0l27 15.4-27.2 15.7-27-15.4L139.3 0z" fill="#fff"/><path d="M166.3 15.4l.3 31.4-27.2 15.7-.3-31.4 27.2-15.7z" fill="#E4EEF3"/><path d="M166.1 15.3l.3 31.3-27.1 15.7-.4-31.4 27.2-15.6z" fill="#DBE4E9"/><path d="M166.3 15.4l.3 31.4-27.2 15.7-.3-31.4 27.2-15.7z" fill="#BCD0E2"/><path d="M139.1 31.1l.3 31.4-27-15.5-.3-31.3 27 15.4z" fill="#AEC4DB"/><path d="M139.3 30.9l.3 31.4-27-15.4-.3-31.4 27 15.4z" fill="#DBE4E9"/><path d="M139.1 31.1l.3 31.4-27-15.5-.3-31.3 27 15.4z" fill="#AEC4DB"/><path d="M103.5 21.1l27 15.4-27.1 15.7-27-15.4 27.1-15.7z" fill="#fff"/><path d="M130.5 36.5l.3 31.3-27.1 15.7-.3-31.3 27.1-15.7z" fill="#E4EEF3"/><path d="M130.4 36.3l.3 31.4-27.2 15.7-.3-31.4 27.2-15.7z" fill="#DBE4E9"/><path d="M130.5 36.5l.3 31.3-27.1 15.7-.3-31.3 27.1-15.7z" fill="#BCD0E2"/><path d="M103.4 52.2l.3 31.3-27-15.4-.3-31.3 27 15.4z" fill="#C4D1E1"/><path d="M103.5 52l.3 31.4-27-15.5-.3-31.3 27 15.4z" fill="#DBE4E9"/><path d="M103.4 52.2l.3 31.3-27-15.4-.3-31.3 27 15.4z" fill="#AEC4DB"/><path d="M174.1 20.4l27 15.5-27.2 15.6-27-15.4 27.2-15.7z" fill="#fff"/><path d="M201.1 35.9l.3 31.3-27.2 15.7-.3-31.4 27.2-15.6z" fill="#E4EEF3"/><path d="M200.9 35.7l.3 31.3L174 82.7l-.3-31.3 27.2-15.7z" fill="#DBE4E9"/><path d="M201.1 35.9l.3 31.3-27.2 15.7-.3-31.4 27.2-15.6z" fill="#BCD0E2"/><path d="M173.9 51.5l.3 31.4-27-15.4-.3-31.4 27 15.4z" fill="#C4D1E1"/><path d="M174.1 51.4l.3 31.3-27-15.4-.3-31.3 27 15.4z" fill="#DBE4E9"/><path d="M173.9 51.5l.3 31.4-27-15.4-.3-31.4 27 15.4z" fill="#AEC4DB"/><path d="M138.3 41.5l27 15.4-27.2 15.7-26.9-15.4 27.1-15.7z" fill="#fff"/><path d="M165.3 56.9l.3 31.4-27.1 15.7-.4-31.4 27.2-15.7z" fill="#E4EEF3"/><path d="M165.2 56.8l.3 31.3-27.2 15.7-.3-31.4 27.2-15.6z" fill="#DBE4E9"/><path d="M165.3 56.9l.3 31.4-27.1 15.7-.4-31.4 27.2-15.7z" fill="#BCD0E2"/><path d="M138.1 72.6l.4 31.4-27-15.5-.3-31.3 26.9 15.4z" fill="#C4D1E1"/><path d="M138.3 72.4l.3 31.4-27-15.4-.3-31.4 27 15.4z" fill="#DBE4E9"/><path d="M138.1 72.6l.4 31.4-27-15.5-.3-31.3 26.9 15.4z" fill="#AEC4DB"/><path d="M87.7 54.4L59.2 68l-23.1-9.4L64.7 45l23 9.4z" fill="#578FFF"/><path d="M41 89.3l-4.9-30.7L59.2 68 64 98.7l-23-9.4z" fill="#387BFF"/><path d="M64 98.7L59.2 68l28.5-13.6 4.8 30.7L64 98.7z" fill="#0063CB"/><path d="M102.6 62.6l27 15.4-27.2 15.7-27-15.4 27.2-15.7z" fill="#fff"/><path d="M129.6 78l.3 31.3-27.2 15.7-.3-31.3L129.6 78z" fill="#BCD0E2"/><path d="M129.4 77.8l.3 31.4-27.2 15.7-.3-31.4 27.2-15.7z" fill="#DBE4E9"/><path d="M129.6 78l.3 31.3-27.2 15.7-.3-31.3L129.6 78z" fill="#BCD0E2"/><path d="M102.4 93.7l.3 31.3-27-15.4-.3-31.3 27 15.4z" fill="#C4D1E1"/><path d="M102.7 93.4l.3 31.4-27-15.5-.3-31.3 27 15.4z" fill="#DBE4E9"/><path d="M102.4 93.7l.3 31.3-27-15.4-.3-31.3 27 15.4z" fill="#DBE4E9"/><path d="M208.9 40.9l27 15.4L208.7 72l-27-15.5 27.2-15.6z" fill="#fff"/><path d="M235.9 56.3l.3 31.3-27.2 15.7-.3-31.3 27.2-15.7z" fill="#E4EEF3"/><path d="M235.7 56.1l.3 31.4-27.2 15.7-.3-31.4 27.2-15.7z" fill="#DBE4E9"/><path d="M235.9 56.3l.3 31.3-27.2 15.7-.3-31.3 27.2-15.7z" fill="#E4EEF3"/><path d="M208.7 72l.3 31.3-27-15.4-.3-31.4 27 15.5z" fill="#C4D1E1"/><path d="M208.9 71.8l.3 31.4-27-15.5-.3-31.3 27 15.4z" fill="#DBE4E9"/><path d="M208.7 72l.3 31.3-27-15.4-.3-31.4 27 15.5z" fill="#BCD0E2"/><path d="M173.1 61.9l27 15.4L172.9 93l-27-15.4 27.2-15.7z" fill="#fff"/><path d="M200.1 77.3l.3 31.4-27.1 15.7-.4-31.4 27.2-15.7z" fill="#E4EEF3"/><path d="M199.9 77.2l.4 31.3-27.2 15.7-.3-31.3 27.1-15.7z" fill="#DBE4E9"/><path d="M200.1 77.3l.3 31.4-27.1 15.7-.4-31.4 27.2-15.7z" fill="#E4EEF3"/><path d="M172.9 93l.4 31.4-27-15.4-.4-31.4 27 15.4z" fill="#C4D1E1"/><path d="M173.1 92.9l.3 31.3-27-15.4-.3-31.4 27 15.5z" fill="#DBE4E9"/><path d="M172.9 93l.4 31.4-27-15.4-.4-31.4 27 15.4z" fill="#BCD0E2"/><path d="M137.4 83l27 15.4-27.2 15.7-27-15.4L137.4 83z" fill="#fff"/><path d="M164.4 98.4l.3 31.4-27.2 15.7-.3-31.4 27.2-15.7z" fill="#E4EEF3"/><path d="M164.2 98.3l.3 31.3-27.2 15.7-.3-31.4 27.2-15.6z" fill="#DBE4E9"/><path d="M164.4 98.4l.3 31.4-27.2 15.7-.3-31.4 27.2-15.7z" fill="#E4EEF3"/><path d="M137.2 114.1l.3 31.4-27-15.5-.3-31.3 27 15.4z" fill="#C4D1E1"/><path d="M137.5 113.8l.3 31.4-27-15.4-.3-31.4 27 15.4z" fill="#DBE4E9"/><path d="M137.2 114.1l.3 31.4-27-15.5-.3-31.3 27 15.4z" fill="#DBE4E9"/><path d="M44.5 74.5s2.8.1 3.3-.4c.5-.6 2.4-2.7 2.4-2.7l.4-.6s-.4-.8-1.7.7c-1.2 1.5-1 .5-1 .5l.6-1.7.6-2.1.4-.9s.3-.5.2-.7c-.1-.5-.5-.2-.5-.2l-1.8 3.5.7-3.6s0-.5-.2-.6c-.2-.1-.3.1-.3.1l-1.9 3.9.2-1.9s0-.5-.2-.6l-.3-.1-1.7 7.2.8.2z" fill="#E9D6B8"/><path d="M46.8 69.4l.4-2.6s.2-.6 0-.9c-.1-.3-.4-.2-.4-.2l-1 3.8 1-.1zm-8.3 14.1s.6-4 6.3-9.2c1.9-1.7-.2-.8-2.7-.5-2.5.4-6.3 5.1-7.5 10.2-1.1 5.2 3.9-.5 3.9-.5z" fill="#E9D6B8"/><path d="M39.7 74.8l2.2-1.7 2.1 2.6-2.1 1.8-2.2-2.7z" fill="#E7F5FE"/><path d="M31.4 110.3S26.7 90 27.3 88.6c2.5-5.8 11.8-15.8 11.8-15.8l4.5 4.3s-7.3 9.2-8.2 10.2c-.7.7 1.3 8.6 4.5 13.9 1.6 2.5-7.9 8.6-8.5 9.1z" fill="#E8B00E"/><path d="M67.3 88.4l.5-13.8s-4.9 9.1-4.2 13.5c.8 4.3 3.7.3 3.7.3z" fill="#E9D6B8"/><path d="M67.1 77.5s-1.7-1.6-1.7-2.2c0-.7.3-3.1.3-3.1l.1-.6s.8-.2.5 1.4c-.2 1.6.3.9.3.9l.8-1.4 1.1-1.7.4-.8s.2-.5.3-.5c.4-.2.4.2.4.2l-1.2 3.2 1.9-2.7s.3-.3.5-.2c.2.1.1.2.1.2l-1.5 3.5 1.2-1.3s.3-.3.5-.2c.2.1.3.1.3.1l-3.8 5.5-.5-.3z" fill="#E9D6B8"/><path d="M69 73l1.5-1.8s.3-.4.5-.6c.3-.1.4.1.4.1l-2 2.9-.4-.6z" fill="#E9D6B8"/><path d="M67.4 81.1l-3.1-.2-.2 3.4 3.1.2.2-3.4z" fill="#E7F5FE"/><path d="M48.6 96.9l13.3-5.8L64 82s4-.4 4.3.6c2 6.7-1.9 16.5-1.9 16.5L48 106.6s-4.7.7-9.2-3.2c-3.2-2.8 8.7-6 9.8-6.5z" fill="#FEC00F"/><path d="M28.4 183.7c.2-.2.1-.9.1-.9s-3.5-.4-4.7-.1c-.3.1-.8.3-1.3.6-.1 0-.2.3-.3.4-.1.1-.2-.1-.3 0-.3.2-.5.4-.5.4-.3 1.6.1 2.3.1 2.3s2.9.9 3.6.3c1.6-1.6 2.9-2.4 3.3-3zm11.2 1.4l.5 2.6h2.7s.1-.4.4-.4c.2 0 .4.4.7.4h6.8s.1-.6 0-.7c-.1-.1-.5-.3-.8-.4-1.4-.4-5.4-1.6-6-2.9-1-1.6-4.3 1.4-4.3 1.4z" fill="#161711"/><path d="M41.7 96.3l.6-3.2s2.3.2 2.7-1c.9-2.5.1-6.4-.4-7.5-1.5-3.1-2.2-8.6-9.3-4.2-2.7 1.7 1.5 9.7 1.8 11.4.3 1.7-.6 3.7-.6 3.7l1.7 1.3 3.5-.5z" fill="#E9D6B8"/><path d="M33.3 147.3s1 .5-2 15.1c-2.2 10.5-4.1 18.2-5 21.7-.3 1.4-.7 1.1-.7 1.1l-2.9.3-1.4-1.2 4.2-23.9 7.8-13.1z" fill="#163F59"/><path d="M40.1 130.9s-6.7 27.8-12 40.3c-3.1 7.3-3.1-6.7-3.1-6.7l4.8-40.4 14-.7c.1 0-1.5.5-3.7 7.5z" fill="#163F59"/><path d="M35.2 123.4s5.1 36.1 5.6 37.7c1.8 5.5 4.6-1.7 5.2-3.5.6-1.8 1.7-15.4 1.5-25.3l-.2-9.9-12.1 1z" fill="#163F59"/><path d="M40.3 152.1s-.8 4.3-1.4 9.8c-.5 4-.5 15.6.3 23.6 0 .5 5.1-1 5.1-1s1.9-22.4 2.3-27.4c.4-5.1-3.1-8.6-6.3-5z" fill="#163F59"/><path d="M28.8 99.5l6-2.7 1.7-1.6 6.4-.2 1.1 1.8 4.9 2.1s1.2 1.9.2 9c-1.2 7.9-1.4 19.8-1.4 19.8l-18.7.9c-.1.2 1.6-25.3-.2-29.1z" fill="#FEC00F"/><path d="M42.7 85.6s-.8-.5-.9.1c-.1.6.3 2 .7 2.1.4.1.5 1.8.5 1.8l-1 1.9h-5s-1.6-.7-1.7-1.8c-.1-1.1-1.4-9-1.4-9l3.5-1.9s1.9-.9 3.2-1.3c2-.6 2.4.5 2.4 1.1-.1.6.6.6 1.4.6.8 0 1.8.6 1.4 1-.2.2.6.6.3 1.2-.5.9-2 1.1-2.1 2.5-.2.6-.5 2.6-1.3 1.7z" fill="#194866"/></svg>