<svg width="261" height="239" fill="none" xmlns="http://www.w3.org/2000/svg"><g clip-path="url(#clip0)"><path d="M140.5 238.4c-40.9-2-78-19.8-103.2-40.9C12 176.1-1.4 151.4.1 127c1.5-24.6 17-46.2 38.6-66.7C60.4 40.1 88.1 21 118.3 10.2c58.8-23.2 118.1 9.1 138.2 85.7 20.2 76.2-32.2 148.8-116 142.5z" fill="#9AC7F7"/><path d="M217.2 120.5c2.7-5.6 4.3-11.9 4.3-18.5 0-23.6-19.1-42.7-42.7-42.7s-42.7 19.1-42.7 42.7c0 6.7 1.6 12.9 4.3 18.5h76.8z" fill="#C5E1F9"/><path d="M235.6 103.6c0 9.3-7.6 16.9-16.9 16.9-9.3 0-16.9-7.6-16.9-16.9 0-9.3 7.6-16.9 16.9-16.9 9.3 0 16.9 7.6 16.9 16.9zM101.5 87.4c0 18.3-14.8 33.1-33.1 33.1s-33.1-14.8-33.1-33.1 14.8-33.1 33.1-33.1 33.1 14.9 33.1 33.1z" fill="#C5E1F9"/><path d="M219.5 82.4c0 20.4-16.5 37-37 37-20.4 0-37-16.6-37-37s16.5-37 37-37c20.4 0 37 16.6 37 37z" fill="#C5E1F9"/><path d="M182.5 45.4c-20.4 0-37 16.6-37 37 0 5.2 1.1 10.1 3 14.6 6.5 5.8 15.1 9.3 24.5 9.3 20.4 0 37-16.6 37-37 0-5.2-1.1-10.1-3-14.6-6.5-5.8-15.1-9.3-24.5-9.3z" fill="#EAF4FE"/><path d="M187.4 120.5c2.7-5.6 4.3-11.9 4.3-18.5 0-23.6-19.1-42.7-42.7-42.7S91.3 78.4 91.3 102c0 6.7-25.6 12.9-22.9 18.5h119z" fill="#C5E1F9"/><path d="M173 54.2c0 30-24.3 54.2-54.2 54.2-30 0-54.2-24.3-54.2-54.2C64.6 24.3 88.9 0 118.8 0c30 0 54.2 24.3 54.2 54.2z" fill="#C5E1F9"/><path d="M103.4 89.5c30 0 54.2-24.3 54.2-54.2 0-8.5-2-16.6-5.5-23.8C143 4.3 131.4 0 118.8 0c-30 0-54.2 24.3-54.2 54.2v.4c-16.5 1.9-29.3 15.9-29.3 32.9 0 5.1 1.2 10 3.3 14.3 3.1 1.4 6.6 2.2 10.3 2.2 13.2 0 24.1-10.1 25.3-23.1 8.4 5.4 18.4 8.6 29.2 8.6z" fill="#EAF4FE"/><path d="M81.4 223.4c.3-.3.1-1.2.1-1.2s-4.7-.5-6.2-.2c-.4.1-1.1.4-1.7.8-.1.1-.3.4-.4.5-.2.1-.3-.1-.4 0-.4.3-.7.5-.7.5-.4 2.1.1 3 .1 3s3.8 1.2 4.7.4c2.3-1.9 3.9-3.1 4.5-3.8zm11 4.5l.7 3.5h3.6s.2-.5.5-.5.6.5.9.5h9s.2-.7 0-1c-.1-.1-.7-.4-1.1-.5-1.8-.5-7.1-2.1-8-3.9-1.1-2.1-5.6 1.9-5.6 1.9z" fill="#161711"/><path d="M95.2 110.4l.8-4.2s3 .2 3.6-1.4c1.2-3.2.2-8.4-.5-9.9-2-4.1-2.9-11.4-12.3-5.6-3.6 2.2 2 12.8 2.4 15.1.4 2.3-.8 4.9-.8 4.9l2.2 1.7 4.6-.6z" fill="#E9D6B8"/><path d="M78.4 150.4l1.8 13.3s-7.2-5.5-7.7-11.8c-.4-6.3 5.6-2 5.9-1.5z" fill="#E2C59C"/><path d="M87.8 175.1s1.4.6-2.7 20c-2.9 13.9-5.4 24.1-6.6 28.7-.5 1.8-1 1.5-1 1.5l-3.9.4-1.9-1.6 5.6-31.6 10.5-17.4z" fill="#0253A2"/><path d="M109.5 141.7l-8 15.3s15.2-11 14.2-17c-.9-6.1-6.2 1.7-6.2 1.7z" fill="#E9D6B8"/><path d="M78.3 114.5s-3.2 2-5.5 18-.8 15.4-.8 15.4l.4 3.7 6 .6 3.3-13.8-3.4-23.9z" fill="#163F59"/><path d="M94.7 156.2s-8 37.1-14.6 53.7c-3.9 9.8-4.3-8.8-4.3-8.8l5.1-53.7 18.5-1.3c0 .1-2.1.8-4.7 10.1z" fill="#0253A2"/><path d="M86.7 146.3s6.7 47.7 7.4 49.9c2.4 7.3 6.1-2.3 6.9-4.7.8-2.4 2.3-20.4 2-33.5l-.3-13.1-16 1.4z" fill="#0253A2"/><path d="M93.4 184.2s-1 5.7-1.9 13c-.6 5.3-.6 20.6.3 31.2.1.6 6.8-1.3 6.8-1.3s2.5-29.6 3-36.3c.7-6.7-3.9-11.3-8.2-6.6z" fill="#0253A2"/><path d="M78.1 114.6L86 111l2.2-2.1 8.4-.2 1.5 2.4 6.5 2.8s1.6 2.5.2 12c-1.6 10.4-1 43.9-1 43.9s-9.2 2.4-18.1 1.5c-6.8-.7-8.9-2.4-8.9-2.4s3.7-49.2 1.3-54.3z" fill="#163F59"/><path d="M102.6 114s1.5-1.6 5.1 2.8c6.1 7.6 9.1 17 9.7 18.9.6 1.8 1.4 4.4-1.1 7.4-1.9 2.3-2.5 3.1-2.5 3.1l-5.5-3.4.9-1.6.6-.8s-3-6.5-6.1-12.4c-3.2-5.9-1.1-14-1.1-14z" fill="#163F59"/><path d="M96.5 96.2s-1.1-.7-1.2.2c-.2.8.4 2.6.9 2.8.5.2.7 2.4.7 2.4l-1.3 2.5h-6.7s-2.1-.9-2.2-2.4c-.2-1.5-1.8-11.9-1.8-11.9l4.7-2.5s2.5-1.2 4.2-1.7c2.7-.8 3.2.7 3.1 1.4-.1.7.7.8 1.8.8s2.4.8 1.8 1.3c-.2.2.8.9.4 1.6-.6 1.1-2.6 1.5-2.8 3.3-.1.8-.5 3.5-1.6 2.2z" fill="#194866"/><path d="M125.7 142s1.4.2.6 7.7c-.8 7.5-3.6 18.3-3.6 18.3l.3-17.4c0-.1.5-6.7 2.7-8.6z" fill="#E9D6B8"/><path d="M123.8 162.1c-.3 3.6 1.2 5.2 1.6 6.7.4 1.4 1.1 2.9 1 2.9-1.3-.9-1.3-2-1.7-2.7-.4-.6-.2-.4-.4.8-.1.7 1 2.1 1.5 3 .5.8.5 1.3.5 1.3s-1.1-1-2-2.2c-1-1.5-1.8-3.3-2-3.7-.2-.8-.1-3.2.2-4.9.7-1.9 1.5-3.8 1.3-1.2z" fill="#E9D6B8"/><path d="M124.5 160.6l-.8 37.1-2.5 36.4 5.6.4s5.2-36.6 5.8-39.8c.6-3.2 7.2-28.6 4.1-35.1-3.2-6.5-12.2 1-12.2 1z" fill="#194866"/><path d="M146.2 140c3.1 3.7 4.7 19.1 4.7 19.1s-1 5.9-6.7-13.9c-1.8-5.9 1.2-6.1 2-5.2z" fill="#E9D6B8"/><path d="M149.6 172.4l1.3-1.4.7-1.4.2-2.5s-.1-2.7-.5-3.7-.3-5-.5-5.5c-.1-.5-2.7-1.1-2.7-1.1s1.1 4.2 1.4 5.9c.3 1.7-.1 4.3 0 4.9.2 1.1.6 2 .6 2s.1-1.8 0-2.3c0-.5.5-.3.5-.3s.2 2.5-.1 3.2c-.2.7-.7 1.2-.7 1.2l-.2 1z" fill="#E9D6B8"/><path d="M129.7 131.4l-2 20.9v1.2l-6-.3s1.7-16.1 2-16.9c.3-.8.9-7.5.8-8.8-.1-1.2.2-7.3 4.2-6.7 3.9.6 1 10.6 1 10.6zm12.9 0l2 20.9v1.2l6-.3c-2.7-12.2-3.3-14.6-3.4-16.9 0-.8-.2-7.5-.1-8.8.1-1.2.2-4.5-3.5-6.7-3.5-2.1-1 10.6-1 10.6z" fill="#387BFF"/><path d="M137.3 161.3l-.7 34-.6 36 4.4-.2s4.4-36.3 4.8-39.5c.4-3.2 5.7-24.5 2.1-30.8-3.5-6.2-10 .5-10 .5z" fill="#194866"/><path d="M136.4 119.2s-6.8.5-8.4 1.2c-1.6.7-1.3 8.7-.2 14.6 1 5.9.6 12.5-.9 16.2-1.5 3.7-2.7 10.7-2.7 10.7l23.9-.3s-5.4-14.7-5.4-20.3c0-5.7 1.5-18.6 1.4-19.9-.2-1.4-6.2-2.2-7.7-2.2z" fill="#0063CB"/><path d="M126.2 116.9c1.5-1.8 2.3-3.8 2.3-6.8 0-1.2-.1-1.7-.2-3.6v-2.7c0-3.3 2.7-6 6-6h1.5c3.3 0 6 2.7 6 6v5c0 3.5 1.8 6.6 4.5 8.6 1.9.9 3.2 2.9 3.2 5.1 0 2.8-2.1 5.2-4.8 5.6-1.1 3.2-4.2 5.5-7.9 5.5-3.1 0-5.9-1.7-7.3-4.2-3-1.2-5.1-4.1-5.1-7.5 0-1.9.7-3.6 1.8-5z" fill="#0253A2"/></g><defs><clipPath id="clip0"><path fill="#fff" d="M0 0h260.8v238.8H0z"/></clipPath></defs></svg>