<svg width="238" height="188" fill="none" xmlns="http://www.w3.org/2000/svg"><g clip-path="url(#clip0)"><path d="M170.849 26.152c29.096 20.545 48.689 49.123 58.108 74.02 9.42 25.231 8.666 46.822-2.805 61.216-11.596 14.561-32.194 20.545-56.726 23.097-24.533 2.218-52.959 1.004-79.71-6.569-52.917-13.348-82.6-61.425-64.597-118.332 17.75-56.697 87.078-76.99 145.73-33.432z" fill="#005F9B" fill-opacity=".1"/><path d="M111.108 81.719l13.02 13.306-.377.502-13.062-13.306.419-.502z" fill="#FFA704"/><path d="M130.492 56.362l13.062 13.306 3.265 3.473-13.061-13.306-3.266-3.473z" fill="#FB8017"/><path d="M100.308 94.774l13.02 13.306-4.773-1.883-13.02-13.306 4.773 1.883z" fill="#FB7F14"/><path d="M157.787 36.32l13.062 13.306.125 6.109-13.019-13.306-.168-6.11z" fill="#FF981E"/><path d="M85.236 118.374l13.02 13.306-7.159 1.213-13.02-13.306 7.159-1.213z" fill="#FF9622"/><path d="M183.744 23.641l13.02 13.306-2.973 7.992-13.062-13.264 3.015-8.034z" fill="#FFA00E"/><path d="M77.533 139.378l13.02 13.306-8.666 4.227-13.062-13.306 8.708-4.227z" fill="#FF9D13"/><path d="M205.137 19.834l13.061 13.305-5.819 8.955-13.02-13.306 5.778-8.954z" fill="#FFA506"/><path d="M78.078 155.363l13.061 13.306-9.168 6.653-13.02-13.306 9.127-6.653z" fill="#FFA309"/><path d="M179.599 46.07c-2.093.334-4.27.836-6.572 1.59a54.705 54.705 0 00-5.945 2.217 87.506 87.506 0 00-5.778 2.678c-1.925.962-3.851 2.05-5.861 3.222a101.247 101.247 0 00-6.154 3.933c-2.26 1.506-4.521 3.18-6.824 4.895a158.207 158.207 0 00-8.456 6.946 177.02 177.02 0 00-10.759 10.336c-6.28 6.569-11.681 13.264-16.076 19.749-1.884 2.804-3.601 5.565-5.108 8.285-.293.544-.586 1.088-.879 1.59a73.291 73.291 0 00-2.386 4.812 59.172 59.172 0 00-2.261 5.523c-.628 1.716-1.13 3.432-1.549 5.022a34.459 34.459 0 00-.88 4.728c-.167 1.632-.25 3.138-.125 4.561.126 1.715.419 3.263.963 4.686a11.79 11.79 0 002.596 4.143l13.02 13.306c-1.131-1.13-2.01-2.553-2.596-4.143a17.915 17.915 0 01-.963-4.686 28.086 28.086 0 01.126-4.561c.167-1.506.46-3.096.879-4.728a67.315 67.315 0 011.507-5.021 59.135 59.135 0 012.261-5.524 72.936 72.936 0 012.386-4.812c.293-.544.586-1.088.879-1.59a102.27 102.27 0 015.149-8.285c4.396-6.485 9.797-13.138 16.076-19.75a177.032 177.032 0 0110.76-10.335c2.805-2.468 5.651-4.77 8.456-6.945 2.261-1.758 4.564-3.39 6.782-4.896a105.927 105.927 0 016.154-3.892 91.703 91.703 0 015.861-3.221c1.968-1.005 3.894-1.925 5.778-2.678a70.046 70.046 0 015.945-2.218c2.302-.711 4.521-1.255 6.572-1.59 5.61-.879 10.299-.293 13.69 1.966l-13.02-13.306c-3.307-2.3-8.038-2.887-13.648-2.008zm15.49 3.43l13.02 13.306c-.544-.544-1.13-1.046-1.8-1.464l-13.02-13.306c.712.46 1.298.92 1.8 1.464z" fill="#FD861A"/><path d="M219.455 25.357l13.061 13.306-7.912 8.829-13.02-13.306 7.871-8.83z" fill="#FFA704"/><path d="M211.584 34.185l13.062 13.307c1.172 1.339 2.219 3.054 2.972 4.979l-13.02-13.306c-.795-1.925-1.842-3.64-3.014-4.98z" fill="#FD861A"/><path d="M78.413 172.644l13.02 13.306-5.233-3.473-13.02-13.306 5.233 3.473z" fill="#FA7E15"/><path d="M86.884 164.288l-8.522 8.347 13.04 13.298 8.52-8.346-13.038-13.299z" fill="#FFA605"/><path d="M93.275 165.74l13.061 13.306c-2.26-.21-4.395-.67-6.363-1.465L86.91 164.275c1.968.795 4.145 1.255 6.364 1.465z" fill="#FD861A"/><path d="M224.938 39.583L238 52.847l-9.001 7.616-13.061-13.264 9-7.616z" fill="#FFA507"/><path d="M223.683 32.47l13.061 13.306L238 52.847l-13.061-13.264-1.256-7.113z" fill="#FF9524"/><path d="M215.937 47.199l13.062 13.306c0 1.339-.084 2.761-.252 4.268l-13.019-13.306c.125-1.548.209-2.971.209-4.268z" fill="#FF9623"/><path d="M215.686 51.425l13.02 13.306a42.019 42.019 0 01-.586 3.682L215.1 55.107c.251-1.255.46-2.469.586-3.682z" fill="#FF981E"/><path d="M102.903 165.154l13.062 13.306-6.908 8.996-13.02-13.306 6.866-8.996z" fill="#FFA605"/><path d="M96.037 174.15l13.02 13.306-8.54.544-13.02-13.306 8.54-.544z" fill="#FF9122"/><path d="M111.904 162.853l13.02 13.306-.754.251-13.02-13.306.754-.251z" fill="#FF9623"/><path d="M111.151 163.104l13.019 13.306a71.867 71.867 0 01-8.247 2.05l-13.062-13.306c2.722-.46 5.568-1.213 8.29-2.05z" fill="#FF9020"/><path d="M220.962 60.714l13.061 13.306-9.084 5.523-13.02-13.306 9.043-5.523z" fill="#FFA00E"/><path d="M223.808 50.923l13.02 13.264-2.805 9.833-13.062-13.306 2.847-9.791z" fill="#FF9E12"/><path d="M211.918 66.237l13.062 13.306a83.652 83.652 0 01-2.261 5.314l-13.062-13.306a197.11 197.11 0 002.261-5.314z" fill="#FF9C16"/><path d="M209.657 71.551l13.02 13.306c-.67 1.507-1.423 3.013-2.219 4.603l-13.062-13.306a153.99 153.99 0 002.261-4.603z" fill="#FF9D14"/><path d="M124.128 157.79l13.062 13.306-4.396 8.577-13.062-13.306 4.396-8.577z" fill="#FFA309"/><path d="M119.733 166.367l13.061 13.306-10.843 4.519-13.061-13.306 10.843-4.519z" fill="#FF9B17"/><path d="M134.679 152.099l13.061 13.306-.042.042-13.061-13.306c0-.042.042-.042.042-.042z" fill="#FF9C16"/><path d="M134.637 152.099l13.062 13.306a152.906 152.906 0 01-8.247 4.561l-13.02-13.306c2.805-1.423 5.609-3.013 8.205-4.561z" fill="#FF9A1A"/><path d="M126.39 156.66l13.02 13.306-2.261 1.129-13.02-13.306a28.508 28.508 0 002.261-1.129z" fill="#FF981E"/><path d="M199.945 89l13.02 13.306a55.608 55.608 0 01-1.34 2.008l-13.062-13.306A28.66 28.66 0 00199.945 89z" fill="#FF9F10"/><path d="M198.606 91.008l13.062 13.306c-1.884 2.762-3.977 5.733-6.28 8.704l-13.02-13.306c2.261-2.971 4.354-5.942 6.238-8.704z" fill="#FFA10D"/><path d="M214.555 74.899l13.062 13.306-6.615 11.381-13.02-13.306 6.573-11.381z" fill="#FFA507"/><path d="M207.983 86.28l13.02 13.306-7.996 2.72L199.945 89l8.038-2.72z" fill="#FF9A1A"/><path d="M158.876 134.692l13.062 13.306a231.089 231.089 0 01-7.41 5.942l-13.062-13.348a183.435 183.435 0 007.41-5.9z" fill="#FF9F10"/><path d="M151.466 140.592l13.062 13.306c-1.13.879-2.303 1.716-3.433 2.553l-13.062-13.307c1.131-.795 2.261-1.673 3.433-2.552z" fill="#FF9D14"/><path d="M181.943 112.306l13.062 13.306a192.844 192.844 0 01-4.982 5.398c-1.716 1.799-3.474 3.557-5.233 5.314l-13.061-13.306a157.648 157.648 0 005.233-5.314c1.716-1.799 3.349-3.598 4.981-5.398z" fill="#FFA10D"/><path d="M146.651 150.3l13.02 13.306-11.806 7.908-13.061-13.306 11.847-7.908z" fill="#FFA20B"/><path d="M148.033 143.186l13.02 13.306-1.382 7.114-13.02-13.306 1.382-7.114z" fill="#FF9C16"/><path d="M187.553 113.185l13.02 13.306-5.987-.418-13.062-13.306 6.029.418z" fill="#FE881B"/><path d="M197.099 101.636l13.062 13.264-9.587 11.591-13.02-13.306 9.545-11.549z" fill="#FFA704"/><path d="M180.729 31.675a67.615 67.615 0 019.001-2.301l6.866-8.996 8.54-.544-5.777 8.954c2.261.21 4.396.67 6.364 1.464l8.54-8.368 5.191 3.473-7.87 8.829c1.172 1.339 2.218 3.054 2.972 4.979l9.168-6.695 1.256 7.072-9.001 7.615c0 2.385-.251 5.063-.795 7.95l8.666-4.226-2.847 9.833-9.085 5.481c-1.13 2.93-2.679 6.402-4.479 9.917l7.159-1.255-6.615 11.381-7.996 2.72a189.524 189.524 0 01-7.619 10.712l4.772 1.883-9.587 11.632-6.028-.419.418-.502c-1.632 1.8-3.265 3.599-4.981 5.398-1.717 1.799-3.475 3.557-5.233 5.314l1.8 4.812-11.387 10.377-3.266-3.473a207.386 207.386 0 01-10.843 8.494l-1.381 7.114-11.848 7.908-.126-6.109a139.71 139.71 0 01-10.55 5.732l-4.395 8.536-10.843 4.519 3.014-8.034a69.143 69.143 0 01-9.001 2.302l-6.866 8.996-8.54.544 5.777-8.954c-2.26-.21-4.395-.67-6.363-1.465l-8.54 8.369-5.234-3.473 7.871-8.829c-1.172-1.339-2.219-3.055-2.972-4.979l-9.169 6.694-1.256-7.071 9.001-7.615c0-2.385.251-5.105.838-7.951l-8.666 4.227 2.846-9.834 9.085-5.481c1.13-2.971 2.68-6.402 4.48-9.917l-7.16 1.256 6.615-11.382 8.038-2.719a189.352 189.352 0 017.62-10.712l-4.773-1.883 9.587-11.59 5.987.418-.419.502c1.633-1.8 3.265-3.599 4.982-5.398 1.716-1.8 3.475-3.598 5.233-5.314l-1.8-4.812 11.387-10.377 3.265 3.473a207.12 207.12 0 0110.843-8.494l1.382-7.113 11.806-7.909.125 6.11a140.03 140.03 0 0110.55-5.733l4.438-8.62 10.843-4.477-3.015 8.034zm12.602 16.36c-12.727-8.493-44.084 6.654-70.082 33.852-9.587 10-17.08 20.251-22.062 29.666-8.582 16.068-9.922 29.583-1.884 34.939 12.727 8.494 44.083-6.653 70.081-33.851 9.587-10 17.081-20.252 22.063-29.667 8.582-16.067 9.922-29.583 1.884-34.938z" fill="#FFCB00"/><path d="M173.529 127.788l13.02 13.306-11.388 10.377-13.019-13.306 11.387-10.377z" fill="#FFA606"/><path d="M171.729 122.976l13.019 13.306 1.801 4.812-13.02-13.306-1.8-4.812z" fill="#FE8D20"/><path d="M136.897 54.396l-4.814 10.837-4.479 4.142 4.814-10.837 4.479-4.142z" fill="#0011D0"/><path d="M41.111 24.77l-4.814 10.838-3.894-7.657 4.815-10.796 3.893 7.616z" fill="#0013D3"/><path d="M161.639 79.125l-4.815 10.837-9.294.251 4.857-10.837 9.252-.251z" fill="#0035D8"/><path d="M20.472 30.545l-4.856 10.838-9.42-7.658 4.815-10.795 9.461 7.615z" fill="#0034D8"/><path d="M166.077 100.088l-4.856 10.837-10.634-2.971 4.856-10.837 10.634 2.971z" fill="#004AD8"/><path d="M112.867 78.162L108.052 89c.796-1.8.461-4.059-1.088-6.737l4.814-10.837c1.549 2.678 1.884 4.98 1.089 6.736z" fill="#000DCD"/><path d="M111.778 71.468l-4.814 10.837c-.461-.753-1.005-1.59-1.675-2.385l4.814-10.838c.67.796 1.215 1.59 1.675 2.386z" fill="#0012D2"/><path d="M110.104 69.082l-4.815 10.838-.042-.042a19.56 19.56 0 00-1.8-1.967l4.815-10.837c.628.67 1.256 1.297 1.8 1.967l.042.041z" fill="#0017D7"/><path d="M108.262 67.032l-4.815 10.837c-.628-.627-1.256-1.255-1.968-1.882l4.815-10.838a28.614 28.614 0 011.968 1.883z" fill="#001CD8"/><path d="M106.294 65.15l-4.814 10.837a45.387 45.387 0 00-2.177-1.8l4.814-10.837c.754.628 1.465 1.214 2.177 1.8z" fill="#0022D8"/><path d="M104.117 63.35l-4.814 10.837c-.796-.627-1.633-1.213-2.512-1.84l4.814-10.838c.88.627 1.717 1.255 2.512 1.84z" fill="#0028D8"/><path d="M101.606 61.55L96.75 72.389a54.793 54.793 0 00-3.057-1.967l4.815-10.837c1.088.628 2.093 1.297 3.098 1.967z" fill="#002DD8"/><path d="M98.549 59.584l-4.815 10.837c-1.34-.795-2.72-1.59-4.144-2.301l4.814-10.837c1.424.711 2.805 1.506 4.145 2.301z" fill="#0033D8"/><path d="M94.405 57.283L89.59 68.12c-5.15-2.636-10.8-4.728-16.201-5.942l4.814-10.837c5.4 1.213 11.052 3.306 16.202 5.942z" fill="#0039D8"/><path d="M78.203 51.341l-4.814 10.837a38.354 38.354 0 00-4.187-.753l4.815-10.837c1.381.167 2.763.418 4.186.753z" fill="#0033D8"/><path d="M74.017 50.588l-4.815 10.837c-.293-.041-.544-.083-.837-.083-.795-.084-1.59-.168-2.302-.21l4.814-10.837c.754.042 1.507.126 2.303.21.292 0 .586.041.837.083z" fill="#002DD8"/><path d="M70.877 50.295l-4.814 10.837c-.88-.041-1.759-.041-2.554-.041l4.814-10.838c.838-.042 1.675 0 2.554.042z" fill="#0028D8"/><path d="M68.322 50.253L63.508 61.09c-.796.042-1.55.084-2.219.168l4.814-10.838a36.814 36.814 0 012.22-.167z" fill="#0022D8"/><path d="M66.104 50.42L61.29 61.259c-.712.084-1.382.251-2.01.377l4.815-10.838a90.312 90.312 0 012.01-.376z" fill="#001CD8"/><path d="M64.095 50.839l-4.814 10.837c-.67.167-1.298.419-1.843.67l4.815-10.838a10.533 10.533 0 011.842-.67z" fill="#0017D7"/><path d="M62.252 51.508l-4.856 10.838a9.073 9.073 0 00-1.758 1.13l4.814-10.838a10.97 10.97 0 011.8-1.13z" fill="#0012D2"/><path d="M60.494 52.638L55.68 63.475c-.544.503-.963 1.047-1.256 1.674l4.814-10.837c.293-.628.712-1.172 1.256-1.674zm94.949 44.479l-4.856 10.837c-.628 1.381-1.507 2.637-2.638 3.808l4.815-10.837c1.172-1.172 2.051-2.427 2.679-3.808z" fill="#000DCD"/><path d="M4.814 40.002L0 50.839l.712-9.959 4.814-10.837-.712 9.959z" fill="#000AC8"/><path d="M16.327 45.483L11.513 56.32 0 50.84l4.814-10.837 11.513 5.481z" fill="#0047D8"/><path d="M18.378 50.755l-4.814 10.838a26.203 26.203 0 01-2.051-5.273l4.814-10.837a26.203 26.203 0 002.051 5.272z" fill="#000DCD"/><path d="M160.592 107.243l-4.814 10.796-11.638 4.477 4.814-10.837 11.638-4.436z" fill="#001ED8"/><path d="M148.955 111.679l-4.815 10.837-9.084-4.812 4.814-10.837 9.085 4.812z" fill="#0045D8"/><path d="M139.87 106.867l-4.815 10.837c-.753.126-1.507.251-2.302.377l4.814-10.838c.796-.125 1.549-.251 2.303-.376z" fill="#001CD8"/><path d="M137.566 107.201l-4.856 10.838c-1.8.251-3.684.418-5.693.46l4.814-10.837a48.3 48.3 0 005.735-.461z" fill="#0022D8"/><path d="M131.832 107.704l-4.815 10.837h-.167l4.814-10.837h.168z" fill="#0028D8"/><path d="M20.346 63.768l-4.814 10.838L5.107 61.844l4.857-10.838 10.382 12.762z" fill="#0021D8"/><path d="M30.52 66.112l-4.857 10.837-10.13-2.343 4.814-10.837 10.173 2.343z" fill="#0047D8"/><path d="M38.013 72.64l-4.815 10.837c-1.465-1.172-2.889-2.344-4.228-3.557l4.814-10.838c1.34 1.214 2.763 2.386 4.229 3.557z" fill="#0022D8"/><path d="M33.785 69.082L28.929 79.92c-1.13-1.005-2.22-1.967-3.266-2.971l4.856-10.837a74.473 74.473 0 003.266 2.97z" fill="#001CD8"/><path d="M109.057 105.402l-4.814 10.838c-.879-.168-1.758-.377-2.638-.586l4.815-10.838c.879.251 1.758.419 2.637.586z" fill="#0033D8"/><path d="M106.42 104.858l-4.815 10.838a159.638 159.638 0 01-9.043-2.302l4.815-10.837c3.056.879 6.07 1.632 9.043 2.301z" fill="#0039D8"/><path d="M114.96 110.758l-4.856 10.837-5.861-5.356 4.815-10.837 5.902 5.356z" fill="#002ED8"/><path d="M134.385 113.018l-4.856 10.837-19.425-2.26 4.856-10.837 19.425 2.26z" fill="#0041D8"/><path d="M71.504 92.891l-4.815 10.837a183.792 183.792 0 01-7.075-3.431L64.43 89.46c2.302 1.172 4.689 2.301 7.075 3.431z" fill="#0039D8"/><path d="M64.387 89.418l-4.814 10.837a139.817 139.817 0 01-4.312-2.301l4.814-10.837c1.424.795 2.889 1.548 4.312 2.301z" fill="#0033D8"/><path d="M97.377 102.557l-4.815 10.837-2.26 3.389 4.856-10.837 2.219-3.389z" fill="#000CCB"/><path d="M53.42 87.912l-4.815 10.837L29.85 86.573l4.856-10.837 18.713 12.176z" fill="#003FD8"/><path d="M60.075 87.117l-4.814 10.837-6.657.795 4.815-10.837 6.656-.795z" fill="#002ED8"/><path d="M161.639 79.125l-9.252.25c1.047 1.758 1.968 3.474 2.596 5.147l11.764 5.607-.712 9.917-10.634-2.97c-.628 1.38-1.507 2.636-2.637 3.807l7.828 6.318-11.638 4.436-9.084-4.812c-2.471.46-5.192.753-8.206.837l2.679 5.314-19.425-2.218-5.861-5.356c-3.851-.795-7.745-1.715-11.68-2.845l-2.26 3.389-22.022-8.327-1.632-4.728a192.772 192.772 0 01-11.387-5.732l-6.657.795-18.713-12.218 3.349-3.097c-2.68-2.134-5.191-4.31-7.494-6.527l-10.173-2.343-10.382-12.763 8.414-.25a26.198 26.198 0 01-2.05-5.273L4.813 40.002l.712-9.959 12.267 3.431a14.414 14.414 0 012.637-2.929l-9.42-7.615 11.597-4.477 12.727 6.736a61.04 61.04 0 015.777-.376l-3.893-7.657 19.425 2.217 9.084 8.243c2.428.544 4.815 1.13 7.243 1.8l3.475-5.23 22.02 8.326 2.512 7.28c2.47 1.13 4.898 2.344 7.285 3.599l9.922-1.172 18.713 12.177-4.479 4.184c2.051 1.59 4.019 3.18 5.903 4.812l12.894 2.97 10.424 12.763zm-62.713 2.887c13.229 1.506 18.211-4.31 11.136-13.013-7.117-8.703-23.612-17.03-36.84-18.537-13.272-1.506-18.254 4.31-11.137 13.014 7.075 8.745 23.57 17.03 36.841 18.536z" fill="#0075F0"/><path d="M73.137 97.62l-4.856 10.837-1.633-4.77 4.857-10.796 1.632 4.728z" fill="#000FCE"/><path d="M95.158 105.946l-4.856 10.837-22.02-8.326 4.856-10.838 22.02 8.327z" fill="#004AD8"/><path d="M141.168 6.779l3.935 4.31 1.591 2.175-3.935-4.31-1.591-2.175z" fill="#89AFCF"/><path d="M128.106 25.273l3.935 4.31-4.061.753-3.935-4.31 4.061-.753z" fill="#97BEDE"/><path d="M156.071 0l3.935 4.31-2.428 4.644-3.935-4.31L156.071 0z" fill="#ACCFEA"/><path d="M148.452 13.766l3.936 4.31c-.377-.418-1.047-.586-1.842-.46l-3.936-4.31c.838-.125 1.466.042 1.842.46z" fill="#8CB1D1"/><path d="M146.61 13.306l3.935 4.31a6.977 6.977 0 00-.795.167l-3.936-4.31c.294-.083.545-.167.796-.167z" fill="#90B6D6"/><path d="M145.814 13.473l3.936 4.31c-.252.084-.461.168-.712.251l-3.935-4.31c.251-.125.46-.209.711-.25z" fill="#95BBDB"/><path d="M145.103 13.683l3.936 4.31c-.21.083-.461.167-.712.292l-3.935-4.31c.251-.083.46-.209.711-.292z" fill="#99C0E0"/><path d="M144.391 13.976l3.936 4.31c-.21.125-.461.209-.712.376l-3.935-4.31c.251-.125.502-.25.711-.376z" fill="#9FC5E5"/><path d="M143.721 14.352l3.936 4.31c-.252.125-.503.293-.754.418l-3.935-4.31c.251-.125.502-.292.753-.418z" fill="#A3C9EA"/><path d="M142.968 14.812l3.935 4.31c-.251.168-.544.377-.837.544l-3.935-4.31c.293-.209.544-.376.837-.544z" fill="#A5C9EA"/><path d="M142.131 15.356l3.935 4.31-1.005.753s-.042.042-.084.042l-3.893-4.268s.042-.042.084-.042c.293-.293.628-.544.963-.795z" fill="#A6CBEA"/><path d="M141.084 16.193l3.935 4.31c-1.255 1.046-2.344 2.218-3.139 3.306l-3.936-4.31a16.558 16.558 0 013.14-3.306z" fill="#A9CDEA"/><path d="M137.902 19.499l3.936 4.31c-.252.334-.461.67-.67 1.004l-3.894-4.31c.168-.335.419-.67.628-1.004z" fill="#A6CBEA"/><path d="M137.274 20.503l3.935 4.31c-.041.042-.041.083-.083.125-.126.21-.252.419-.335.628l-3.936-4.31c.084-.21.21-.418.335-.628.042-.083.042-.083.084-.125z" fill="#A5C9EA"/><path d="M136.856 21.256l3.935 4.31c-.126.21-.21.418-.293.628l-3.936-4.31c.084-.21.168-.419.294-.628z" fill="#A3C9EA"/><path d="M136.563 21.884l3.935 4.31c-.084.209-.125.376-.209.585l-3.935-4.31c.083-.167.125-.376.209-.585z" fill="#9FC5E5"/><path d="M136.353 22.47l3.936 4.31c-.042.209-.084.376-.126.543l-3.893-4.31c0-.167.041-.334.083-.543z" fill="#99C0E0"/><path d="M136.269 23.014l3.936 4.31c-.042.209-.042.376-.042.543l-3.935-4.31c0-.167 0-.334.041-.543z" fill="#95BBDB"/><path d="M136.228 23.558l3.935 4.31c0 .209.042.376.084.543l-3.936-4.31a2.115 2.115 0 01-.083-.543z" fill="#90B6D6"/><path d="M136.312 24.102l3.935 4.31c0 .041.042.083.042.125.083.125.125.251.251.335l-3.935-4.31c-.084-.084-.168-.21-.252-.335 0-.042 0-.084-.041-.125z" fill="#8CB1D1"/><path d="M128.357 32.805l3.935 4.31-5.024 3.85-3.977-4.31 5.066-3.85z" fill="#B1D3EA"/><path d="M163.021 4.435l3.935 4.31-4.982 4.394-3.935-4.31 4.982-4.394z" fill="#B4D5EA"/><path d="M161.765 1.674l3.935 4.31 1.256 2.761-3.935-4.31-1.256-2.761z" fill="#8EB1D3"/><path d="M131.454 33.725l3.936 4.31c-1.298 0-2.345-.293-3.098-.878l-3.936-4.31c.754.585 1.801.878 3.098.878z" fill="#8CB1D1"/><path d="M158.039 8.829l3.935 4.31c0 .293-.042.586-.084.92l-3.935-4.31a6.81 6.81 0 00.084-.92z" fill="#95BBDB"/><path d="M157.955 9.75l3.935 4.31c-.041.418-.167.878-.293 1.338l-3.935-4.31a5.11 5.11 0 00.293-1.339z" fill="#99C0E0"/><path d="M157.704 11.088l3.935 4.31a9.6 9.6 0 01-.503 1.423l-3.935-4.268c.209-.502.335-.963.503-1.465z" fill="#9FC5E5"/><path d="M157.202 12.553l3.935 4.31c-.084.167-.126.376-.21.544l-3.935-4.31c.084-.168.126-.377.21-.544z" fill="#A3C9EA"/><path d="M136.897 32.386l3.935 4.31-3.056 4.687-3.935-4.31 3.056-4.687z" fill="#B1D4EA"/><path d="M133.841 37.073l3.935 4.31-4.814 1.297-3.936-4.31 4.815-1.297z" fill="#9DC3E3"/><path d="M142.34 29.374l3.936 4.31c-.294.167-.545.376-.838.544l-3.935-4.31c.293-.168.544-.335.837-.544z" fill="#A5C9EA"/><path d="M141.502 29.918l3.935 4.31c-.628.376-1.214.753-1.842 1.087l-3.935-4.31a21.15 21.15 0 001.842-1.087z" fill="#A3C9EA"/><path d="M139.703 31.006l3.935 4.31c-.586.334-1.172.627-1.716.878l-3.936-4.31a22.167 22.167 0 001.717-.878z" fill="#9FC5E5"/><path d="M137.986 31.884l3.935 4.31c-.377.167-.711.335-1.088.46l-3.936-4.268c.335-.167.712-.334 1.089-.502z" fill="#99C0E0"/><path d="M153.35 19.08l3.935 4.31c-1.297 1.716-2.846 3.431-4.605 5.105l-3.935-4.31a39.67 39.67 0 004.605-5.105z" fill="#A9CDEA"/><path d="M161.053 12.344l3.935 4.31-3.056 5.188-3.935-4.31 3.056-5.188z" fill="#AFD2EA"/><path d="M157.997 17.532l3.935 4.31-4.647 1.548-3.935-4.31 4.647-1.548z" fill="#A1C6E8"/><path d="M149.457 26.988l3.977 4.31-5.568 4.561-3.935-4.31 5.526-4.56z" fill="#B2D5EA"/><path d="M148.745 24.185l3.935 4.31.754 2.803-3.977-4.31-.712-2.803z" fill="#91B6D7"/><path d="M156.071 0l-2.428 4.645c1.298 0 2.344.292 3.098.92l5.024-3.85 1.256 2.762-4.982 4.394c0 1.255-.377 2.678-1.047 4.268l4.061-.753-3.014 5.188-4.647 1.59c-1.298 1.716-2.847 3.431-4.605 5.105l.711 2.803-5.568 4.561-1.59-2.176c-1.884 1.256-3.726 2.26-5.443 2.971l-3.056 4.687-4.814 1.297 2.428-4.645c-1.298 0-2.345-.293-3.098-.879l-5.024 3.85-1.256-2.762 4.982-4.393c0-1.255.377-2.678 1.047-4.268l-4.061.753 3.014-5.188 4.647-1.59c1.298-1.716 2.847-3.432 4.605-5.105l-.712-2.804 5.568-4.56 1.591 2.175c1.884-1.255 3.726-2.26 5.443-2.97l3.056-4.687L156.071 0zm-7.368 14.101c-.795-1.674-4.145-.795-7.577 2.008-1.717 1.423-3.098 3.013-3.936 4.478-.879 1.464-1.214 2.803-.795 3.64.795 1.674 4.144.795 7.577-2.008 1.717-1.381 3.098-3.013 3.936-4.478.837-1.464 1.172-2.803.795-3.64z" fill="#C5E1F9"/></g><defs><clipPath id="clip0"><path fill="#fff" d="M0 0h238v188H0z"/></clipPath></defs></svg>