<svg width="279" height="252" fill="none" xmlns="http://www.w3.org/2000/svg"><g clip-path="url(#clip0)"><path opacity=".1" d="M46.877 86.741c18.299-8.561 43.149-7.21 71.953-39.428 54.105-60.268 123.799-72.772 150.004 20.84 26.093 93.614 2.147 172.807-70.823 182.833-53.54 7.323-72.291-29.627-103.467-15.658C36.598 261.35-.564 226.879 0 172.243c.565-54.748 22.479-74.124 46.877-85.502z" fill="#005F9B"/><path d="M239.804 42.019H79.068v75.814h160.736V42.019z" fill="#FFAB01"/><path d="M239.804 117.833h-80.763v81.221h80.763v-81.221z" fill="#7EB3FF"/><path d="M86.185 110.623V49.228h146.503v61.395H86.185z" fill="#FEC12F"/><path d="M239.804 42.357H79.068v-10.59h160.736v10.59z" fill="#C5E1F9"/><path d="M82.345 38.752h3.05v-3.605h-3.05m5.986 3.605h2.937v-3.605H88.33m5.875 3.605h2.937v-3.605h-2.937" fill="#3673D9"/><path d="M159.041 199.054H79.068v-81.221h79.973v81.221z" fill="#9AC7F7"/><path d="M86.976 191.056v-65.225h64.158v65.225H86.976z" fill="#7EB3FF"/><path d="M110.696 145.883c0 3.154-2.598 5.858-5.76 5.858-3.163 0-5.761-2.591-5.761-5.858 0-3.154 2.598-5.858 5.761-5.858 3.162.113 5.76 2.704 5.76 5.858zm15.25 12.166l10.279 13.18 10.166 13.068h-41.003l10.279-13.068 10.279-13.18z" fill="#9AC7F7"/><path d="M106.63 165.822l7.229 9.237 7.229 9.238H92.284l7.23-9.238 7.116-9.237z" fill="#9AC7F7"/><path d="M103.128 81.109h36.71v-3.943h-36.71v3.943zm77.601 0h36.823v-3.943h-36.823v3.943z" fill="#fff"/><path d="M174.855 146.108h36.711v-3.943h-36.711v3.943zm0 8.9h50.379v-1.915h-50.379v1.915zm0 4.844h50.379v-1.915h-50.379v1.915zm0 4.843h50.379v-2.027h-50.379v2.027zm0 4.844h50.379v-2.027h-50.379v2.027zm0 4.732h31.967v-1.915h-31.967v1.915z" fill="#9AC7F7"/><path d="M167.739 75.701v5.858l6.665 5.858v-17.46l-6.665 5.745z" fill="#fff"/><path d="M156.669 82.686v-8.111l5.535 4.055-5.535 4.056zm10.053-14.532h-16.83c-1.13 0-1.92.901-1.92 2.028v17.123c0 1.126.903 2.027 1.92 2.027h16.83c1.13 0 1.921-.901 1.921-2.027V70.069c0-1.014-.904-1.915-1.921-1.915z" fill="#fff"/><path d="M239.804 199.054h-12.425l12.425-12.617v12.617z" fill="#9AC7F7"/><path d="M68.564 108.483c-2.259 1.014-.339 1.126-.226 1.239.791 1.014 9.827-.451 10.392-1.803.113-.225-4.18-.788-4.18-.901-.338-1.915-.451-3.492.114-5.52 0-.112-.113-.338-.34-.338-.79 0-1.58.113-2.371.113-.113 0-1.695.338-1.356 1.127.226 2.027.226 4.956-2.033 6.083z" fill="#E9D6B8"/><path d="M69.694 102.85l-.113-.225v-.113c-.113-.112-.113-.225-.226-.225v-.113l-.113-.225-.113-.113-.113-.225h-.113c0-.112-.113-.112-.113-.225l-.113-.225-.113-.226-.113-.225-.113-.113-.112-.112c-.226-.789-.791-4.394-.452-6.309 0-.225.226-.45.564-.45 1.808-.113 7.23-1.578 6.89 3.942v2.028c-.338 2.591-1.355 4.506-2.823 4.731-.904.113-1.695-.337-2.485-1.239l-.226-.338z" fill="#E9D6B8"/><path d="M71.162 94.289c.339-.45 2.033-1.014 2.033-1.014.113-.563-.339-.789-.79-1.24-1.017-.9-2.712-.788-3.728.113-1.13.902-1.243 2.366-.226 3.155.678.563 1.694.788 2.598.45-.113-.225-.565-.676.113-1.464z" fill="#F80"/><path d="M62.69 226.879s.79-.338 3.163-.676c1.355-.225 2.372-.113 2.824-.563.79-.789.452-3.38.79-3.267 1.92.563 2.373 5.069 1.243 5.52-1.13.45-7.342 0-7.907-.113-.339-.113-.226-1.127-.113-.901zm16.379-44.047l-.339-3.379c-.678-1.69-1.355-2.704-1.92-2.591-2.26.112-5.535 8.561-1.469 30.753.226 1.127 2.26 20.165 2.373 19.714 1.694-5.294 2.823-27.599 1.355-44.497z" fill="#E9D6B8"/><path d="M78.052 144.869c-1.808-.338-1.808.676-3.276 3.154-2.71 4.957-4.292 12.505-3.727 20.503.79 9.462 2.936 17.686 5.76 22.981 1.92-4.281 3.05-9.576 3.954-15.434 3.05-18.024 2.823-29.965-2.711-31.204z" fill="#E9D6B8"/><path d="M75.228 165.709c2.485-.45 4.857-.676 7.116-.45-.338 3.041-.677 6.421-1.355 10.026-2.598-3.042-7.794-1.69-9.037-.338-.338-2.028-.564-4.168-.79-6.421 0-.676-.113-1.239-.113-1.915 1.355-.226 2.824-.564 4.18-.902z" fill="#E2C59C"/><path d="M89.8 121.1c-2.824 2.365-5.76 13.293-5.76 13.293s.112 4.393 6.776-9.238c1.92-4.055-.338-4.618-1.016-4.055zm-27.675-3.267c-2.146 3.154-1.13 14.532-1.13 14.532s1.92 4.168 3.841-10.927c.565-4.506-2.146-4.281-2.711-3.605z" fill="#E9D6B8"/><path d="M62.577 131.464c-1.694-4.056-13.441-11.941-13.441-11.941s-5.196-1.69 8.358 11.377c3.954 3.83 5.535 1.577 5.083.564z" fill="#E9D6B8"/><path d="M43.94 114.453l-.226.338.339 1.352s1.468 2.028 2.259 2.591c.79.563 3.05 3.718 3.389 3.943.338.338 2.372-.563 2.372-.563s-2.937-2.591-4.067-3.718c-1.13-1.126-2.033-3.267-2.485-3.717-.678-.789-1.016-1.24-1.016-1.24s-.34.451.677 1.69c.226.338-.226.451-.226.451l-1.016-1.127zm20.332 34.134c1.355-.338 1.355.675 2.485 3.041 2.033 4.731 3.275 11.716 2.823 19.263-.564 8.787-2.146 16.56-4.292 21.404-1.468-4.055-2.259-9.012-3.05-14.419-2.259-17.123-2.146-28.276 2.034-29.289z" fill="#E9D6B8"/><path d="M64.384 168.976c-.112-3.041-.112-5.745-.112-8.111.451-.563.677-.225 1.468.113 1.468.563 2.937 2.253 3.953 4.731 0 1.69 0 3.38-.113 5.182-.113 1.915-.225 3.831-.451 5.633-.565-.676-1.13-1.465-1.695-2.253a55.677 55.677 0 01-3.05-5.295z" fill="#E2C59C"/><path d="M65.966 178.439c.904-.451 2.485.789 3.502 3.042 2.033 4.393 2.372 10.476 2.372 17.798 0 7.773-.226 13.631-.565 18.362-.339 4.732 1.356 11.491-2.146 10.702.678-6.533.113-16.221-1.581-21.403-5.761-17.574-4.406-27.262-1.582-28.501z" fill="#E9D6B8"/><path d="M66.305 123.691l13.893-.338 1.356-15.884-17.282 1.915 2.033 14.307z" fill="#194866"/><path d="M84.039 171.117c-7.907-1.014-15.814-2.028-23.608-3.042-4.292-14.307-.565-30.303 5.874-44.497 4.631-.113 9.375-.338 14.006-.451 4.744 15.096 9.037 32.669 3.728 47.99zm4.291-47.764l-9.262-14.42c.226-.45.452-.788.791-1.014l.226-.225c1.017-.676 2.372-.338 3.05.676l8.133 12.504-2.937 2.479zm-24.284 3.379l2.372-16.897c-.339-.338-.678-.451-1.243-.564h-.338c-1.243-.112-2.373.676-2.485 1.915l-2.034 14.758 3.728.788z" fill="#194866"/><path d="M83.813 137.434c.113.225.34.451.565.338l.565-.113c.226-.112.452-.337.339-.563l-.678-2.703c-.113-.226-.339-.451-.565-.338l-.565.112c-.225.113-.451.338-.339.564l.678 2.703z" fill="#E9D6B8"/><path d="M77.714 229.245c1.016 3.154 2.485 5.519 3.275 5.182.791-.226.678-3.042-.226-6.196-1.016-3.155-2.485-5.52-3.275-5.182-.79.338-.678 3.041.226 6.196z" fill="#194866"/><path d="M70.71 224.626v.112h-.226v-.225h.226v.113z" fill="#E9D6B8"/><path d="M64.046 226.541c-.452 1.464 4.18 1.127 5.422.789 1.13-.338 1.92-.451 1.92-.451h.113v.113c0 .788.226 1.915-1.017 1.915l-8.245-.451c-6.778-.338 1.807-2.028 1.807-1.915zm.678-126.732l.904-7.323c1.355-1.464 3.05-2.253 4.744-2.027 3.388.45 5.647 4.393 5.083 8.9-.565 4.505-3.728 7.772-7.117 7.321-2.371-.338-4.179-2.365-4.857-5.069.678-.338 1.243-1.014 1.243-1.802z" fill="#194866"/><path d="M78.165 103.752c.113 1.126-1.016 2.253-2.71 2.478l-3.728.45c-1.695.226-3.05-.563-3.276-1.689l-1.355-10.59c-.113-1.126 1.016-2.252 2.71-2.478l3.728-.45c1.694-.226 3.05.563 3.276 1.69l1.355 10.589z" fill="#194866"/></g><defs><clipPath id="clip0"><path fill="#fff" d="M0 0h279v252H0z"/></clipPath></defs></svg>