<svg width="27" height="22" fill="none" xmlns="http://www.w3.org/2000/svg"><path d="M8.493 22a15.621 15.621 0 006.046-1.177 15.656 15.656 0 005.126-3.422A15.74 15.74 0 0024.25 6.199v-.727A11.554 11.554 0 0027 2.605a11.401 11.401 0 01-3.179.874A5.609 5.609 0 0026.276.402a10.893 10.893 0 01-3.51 1.354 5.534 5.534 0 00-6.657-1.1A5.556 5.556 0 0013.67 3.26a5.577 5.577 0 00-.355 3.554 15.663 15.663 0 01-6.323-1.68 15.705 15.705 0 01-5.09-4.116A5.563 5.563 0 003.62 8.4a5.475 5.475 0 01-2.454-.689v.062a5.584 5.584 0 001.213 3.51 5.557 5.557 0 003.144 1.966c-.8.216-1.64.25-2.455.098a5.55 5.55 0 001.964 2.717 5.525 5.525 0 003.166 1.086 11.088 11.088 0 01-6.885 2.461c-.44-.012-.878-.05-1.313-.11a15.642 15.642 0 008.493 2.46" fill="#A0A0A0"/></svg>