<svg width="25" height="17" fill="none" xmlns="http://www.w3.org/2000/svg"><path d="M24.473 2.654a3.017 3.017 0 00-.808-1.357 3.147 3.147 0 00-1.398-.785C20.321 0 12.5 0 12.5 0S4.679 0 2.733.512a3.147 3.147 0 00-1.398.785 3.017 3.017 0 00-.808 1.357A30.468 30.468 0 00.001 8.5c-.013 1.96.163 3.918.526 5.846.143.513.421.982.808 1.357.387.376.87.647 1.398.785C4.679 17 12.5 17 12.5 17s7.821 0 9.767-.512a3.148 3.148 0 001.398-.784c.387-.377.665-.845.808-1.358.363-1.928.54-3.886.526-5.846a30.464 30.464 0 00-.526-5.846zM10 12.143V4.857L16.49 8.5 10 12.143z" fill="#A0A0A0"/></svg>