<svg xmlns="http://www.w3.org/2000/svg" width="24" height="19.546" viewBox="0 0 24 19.546"><defs><style>.a{fill:#b2b8cb;}</style></defs><g transform="translate(-12.4 -24.9)"><path class="a" d="M39.86,41.036c-.043,0-.043-.036-.087-.036-.087,0-.173.036-.173.145v4.192c0,.108.087.145.173.145.043,0,.043,0,.087-.036l4.333-2.1c.087-.036.087-.072.087-.145s0-.108-.087-.145Z" transform="translate(-17.505 -10.664)"/><path class="a" d="M36.4,24.9h-24V38.407h24Zm-9.534,8.5-3.681,1.949a1.329,1.329,0,0,1-.626.168,1.191,1.191,0,0,1-1.252-1.142v-3.9a1.191,1.191,0,0,1,1.252-1.142,1.329,1.329,0,0,1,.626.168l3.681,1.949a1.09,1.09,0,0,1,.626,1.008A1,1,0,0,1,26.866,33.4Z"/><rect class="a" width="1.405" height="6.788" transform="translate(23.698 36.487)"/><rect class="a" width="11.142" height="1.405" transform="translate(18.829 43.041)"/></g></svg>