<svg xmlns="http://www.w3.org/2000/svg" width="24" height="16.234" viewBox="0 0 24 16.234"><defs><style>.a{fill:#b2b8cb;}</style></defs><g transform="translate(59.1 -13.584)"><g transform="translate(-59.1 13.584)"><path class="a" d="M26.564,43.684v-.4a1.3,1.3,0,1,0-2.6,0v.4A10.5,10.5,0,0,0,15.2,54.3H35.355A10.545,10.545,0,0,0,26.564,43.684Z" transform="translate(-13.262 -41.9)"/><path class="a" d="M31.966,88H9.834a.948.948,0,0,0-.934.984v.953a.948.948,0,0,0,.934.984H31.966a.948.948,0,0,0,.934-.984v-.953A.967.967,0,0,0,31.966,88Z" transform="translate(-8.9 -74.688)"/></g></g></svg>