<svg xmlns="http://www.w3.org/2000/svg" width="24" height="13.37" viewBox="0 0 24 13.37"><defs><style>.a{fill:#b2b8cb;}</style></defs><g transform="translate(-66 -28.553)"><g transform="translate(66 28.553)"><g transform="translate(0)"><g transform="translate(2.378 0)"><path class="a" d="M11.568,31.379v7.457c0,.534.65.969,1.453.975V30.4C12.218,30.41,11.568,30.846,11.568,31.379Z" transform="translate(-11.568 -28.423)"/><rect class="a" width="13.64" height="3.47" transform="translate(2.802 4.95)"/><path class="a" d="M19.978,24.932h-.11c-1.048,0-1.9.628-1.9,1.4V26.6h0V36.636h0V36.9c0,.772.853,1.4,1.9,1.4h.11c1.048,0,1.9-.628,1.9-1.4V26.332C21.879,25.56,21.027,24.932,19.978,24.932Z" transform="translate(-15.65 -24.932)"/><path class="a" d="M73.235,24.932h-.11c-1.048,0-1.9.628-1.9,1.4V36.9c0,.772.853,1.4,1.9,1.4h.11c1.048,0,1.9-.628,1.9-1.4V26.332C75.136,25.56,74.283,24.932,73.235,24.932Z" transform="translate(-58.209 -24.932)"/><path class="a" d="M84.408,30.4l0,9.407c.8-.006,1.454-.441,1.454-.975V31.379C85.865,30.845,85.213,30.409,84.408,30.4Z" transform="translate(-66.62 -28.423)"/></g><g transform="translate(0 4.525)"><path class="a" d="M5,46.193A2.151,2.151,0,0,0,6.016,48.02l.529.333v-4.32l-.529.333A2.151,2.151,0,0,0,5,46.193Z" transform="translate(-5 -44.033)"/><path class="a" d="M91.26,44.366l-.529-.333v4.32l.529-.333a2.15,2.15,0,0,0,0-3.654Z" transform="translate(-68.276 -44.033)"/></g></g></g></g></svg>