<svg xmlns="http://www.w3.org/2000/svg" width="24" height="23.514" viewBox="0 0 24 23.514"><defs><style>.a{fill:#b2b8cb;}</style></defs><g transform="translate(-91.169 -210.016)"><path class="a" d="M8.838,15.4l2.295-5.965a.575.575,0,0,1,.553-.419H28.648v0a.567.567,0,0,1,.531.366L31.5,15.4a4.39,4.39,0,0,1,.093,4.515V31.959a.574.574,0,0,1-.572.572H9.317a.574.574,0,0,1-.572-.572V19.916A4.413,4.413,0,0,1,8.838,15.4Zm19.141,8.993-4.848.022v2.766h4.915V24.416A.1.1,0,0,0,27.979,24.393Zm3.009-7.143L28.26,10.16H24.552l0,7.576h0a3.233,3.233,0,0,0,6,1.693A3.282,3.282,0,0,0,30.988,17.251ZM18.7,31.387c.078-1.529-.019-3.338-.019-4.852a2.151,2.151,0,0,0-3.678-1.589,2.275,2.275,0,0,0-.635,1.589v4.852Zm4.71-21.227H16.934l0,7.042h0a3.483,3.483,0,0,0,.942,2.841,3.242,3.242,0,0,0,5.524-2.306h0Zm-7.618,0H12.075l-2.729,7.09a3.306,3.306,0,0,0,.912,2.788,3.248,3.248,0,0,0,5.539-2.3V17.2h0Z" transform="translate(83 201)"/></g></svg>