<svg xmlns="http://www.w3.org/2000/svg" width="24" height="24" viewBox="0 0 24 24"><defs><style>.a{fill:#b2b8cb;}</style></defs><g transform="translate(-77 -74)"><g transform="translate(77 74)"><path class="a" d="M8.939,39.16,5.832,37.577,5.01,38.4A12.142,12.142,0,0,0,5.9,40.7l.006.011q.136.263.284.523l.013.022q.149.258.311.509l.011.016a12.268,12.268,0,0,0,.724,1l1.147-.182Z" transform="translate(-4.567 -23.275)"/><path class="a" d="M24.9,24.9l-.707,4.463,4.026,2.051,3.2-3.2-2.051-4.026Z" transform="translate(-15.62 -15.62)"/><path class="a" d="M29.543,54.454l.526,1.033a12.4,12.4,0,0,0,4.865-.765l.182-1.149L32.009,51.99Z" transform="translate(-18.669 -31.499)"/><path class="a" d="M42.6,8.394l.182-1.147a12.367,12.367,0,0,0-1-.724l-.018-.011q-.251-.162-.508-.31l-.022-.012q-.259-.149-.523-.284L40.7,5.9a12.142,12.142,0,0,0-2.3-.889l-.822.822L39.16,8.939Z" transform="translate(-23.275 -4.567)"/><path class="a" d="M12.607,12.608l.546-3.445-1.035-.526a12.224,12.224,0,0,0-3.482,3.482l.526,1.035Z" transform="translate(-6.602 -6.603)"/><path class="a" d="M55.486,30.069l-1.033-.526-2.466,2.466,1.585,3.107,1.15-.182A12.394,12.394,0,0,0,55.486,30.069Z" transform="translate(-31.498 -18.669)"/><path class="a" d="M23.52,17.192,26.811,13.9l1.089.555a11.907,11.907,0,0,0-3.413-6.941c-.079-.079-.161-.154-.242-.231l-.191,1.2-4.6.729L17.345,5.071l.866-.866A12.16,12.16,0,0,0,16,4a11.941,11.941,0,0,0-5.75,1.463l1.095.557-.729,4.6-4.6.729-.557-1.095A11.941,11.941,0,0,0,4,16a12.16,12.16,0,0,0,.2,2.21l.867-.866,4.146,2.113-.729,4.6-1.2.191c.077.081.152.163.231.242A11.907,11.907,0,0,0,14.458,27.9L13.9,26.811l3.29-3.291,4.146,2.113-.193,1.215a12.1,12.1,0,0,0,5.705-5.705l-1.215.192ZM18.732,9.7l.764.389-.389.764-.764-.389Zm-7.278,1.152.606.606-.606.606-.606-.606ZM10.086,19.5,9.7,18.732l.764-.389.389.764Zm6.565,3.343-.136-.845.846-.134.134.847Zm4.364-5.61-.631-.1L17.13,20.383l.1.631-.846.134-.1-.631-4.1-2.089-.57.29-.389-.764.569-.29.72-4.545-.451-.451.606-.606.451.451,4.545-.72.29-.569.764.389-.29.57,2.089,4.1.631.1Zm1.693.268-.847-.134L22,16.516l.846.134Z" transform="translate(-4 -4)"/></g></g></svg>