<svg xmlns="http://www.w3.org/2000/svg" width="17.846" height="17.846" viewBox="0 0 17.846 17.846"><defs><style>.a{fill:#626771;}</style></defs><g transform="translate(101.5 -13.035)"><g transform="translate(-110 4.535)"><path class="a" d="M21.871,16.5l-2.118,1.828.6,2.734a.38.38,0,0,1-.568.406l-2.392-1.45-2.413,1.416a.38.38,0,0,1-.562-.414l.64-2.724-2.093-1.857a.38.38,0,0,1,.22-.663l2.788-.233,1.12-2.564a.38.38,0,0,1,.7,0l1.084,2.58,2.785.273a.38.38,0,0,1,.211.664Zm4.474.925A8.923,8.923,0,1,1,17.423,8.5,8.923,8.923,0,0,1,26.346,17.423Zm-1.139,0a7.784,7.784,0,1,0-7.784,7.784A7.784,7.784,0,0,0,25.207,17.423Z"/></g></g></svg>