<svg xmlns="http://www.w3.org/2000/svg" width="17.982" height="28.83" viewBox="0 0 17.982 28.83"><defs><style>.a{fill:#b2b8cb;}</style></defs><g transform="translate(-25.813 -169.075)"><path class="a" d="M39.3,11.877h-.817V7.07h.128a1.157,1.157,0,0,0,1.22-1.083,1.157,1.157,0,0,0-1.22-1.083H30.993a1.158,1.158,0,0,0-1.22,1.083,1.157,1.157,0,0,0,1.22,1.083h.128v4.806H30.3c-2.479,0-4.491,1.642-4.491,3.666v13.2c0,2.024,2.012,3.666,4.491,3.666h.558v.79c0,.3.594.539,1.326.539s1.326-.241,1.326-.539v-.79h2.579v.79c0,.3.594.539,1.326.539s1.326-.241,1.326-.539v-.79H39.3c2.48,0,4.491-1.641,4.491-3.666v-13.2C43.795,13.518,41.784,11.877,39.3,11.877ZM32.468,7.07H37.14v4.806H32.468Zm7.276,19.217h-9.88a.8.8,0,1,1,0-1.558h9.88a.8.8,0,1,1,0,1.558Zm0-3.666h-9.88a.8.8,0,1,1,0-1.558h9.88a.8.8,0,1,1,0,1.558Zm0-3.666h-9.88a.88.88,0,0,1-.954-.779.88.88,0,0,1,.954-.779h9.88a.88.88,0,0,1,.954.779A.88.88,0,0,1,39.744,18.956Z" transform="translate(0 164.17)"/></g></svg>